<svg width="150" height="125" viewBox="0 0 150 125" fill="none" xmlns="http://www.w3.org/2000/svg">
<path d="M74.8865 67.3383V83.4223C99.4219 83.4223 118.525 57.0857 110.499 28.5186C106.992 16.0347 98.0643 6.11497 86.8287 2.2179C61.1184 -6.69995 37.415 14.5267 37.415 41.7882H51.9238C51.9259 41.7882 51.9276 41.784 51.9276 41.784C51.9297 24.6754 67.1681 11.4483 83.3566 17.9752C89.3541 20.3935 94.1379 25.708 96.3157 32.3713C102.191 50.348 90.3043 67.2729 74.9197 67.2972V51.2651C74.9197 51.2651 74.9184 51.2642 74.9171 51.2642H60.453C60.4517 51.2642 60.4504 51.2665 60.4504 51.2665V67.3383H74.8865ZM60.4479 79.691H49.3343L49.3317 79.6881V67.3383H60.4504V79.6881C60.4504 79.6881 60.4491 79.691 60.4479 79.691ZM49.3394 67.3383H40.0228C40.019 67.3383 40.016 67.3355 40.016 67.3355V56.9884C40.016 56.9884 40.019 56.9809 40.0228 56.9809H49.3326C49.3364 56.9809 49.3394 56.9842 49.3394 56.9842V67.3383Z" fill="#0080FF"/>
<path d="M12.9472 99.7378C11.0609 98.2836 8.7136 97.5466 5.97068 97.5466H0V118.594H5.97068C8.7068 118.594 11.055 117.816 12.9493 116.283C13.9802 115.47 14.7901 114.334 15.3569 112.908C15.9208 111.489 16.2068 109.815 16.2068 107.934C16.2068 106.074 15.9208 104.422 15.3565 103.023C14.7901 101.617 13.9793 100.512 12.9472 99.7378ZM3.4874 101.104H5.36133C7.44646 101.104 9.16275 101.56 10.4643 102.46C11.9091 103.428 12.6421 105.269 12.6421 107.934C12.6421 110.678 11.9074 112.602 10.4592 113.656H10.4579C9.21162 114.572 7.50553 115.036 5.38725 115.036H3.4874V101.104ZM18.6523 118.594H22.0096V103.77H18.6523V118.594ZM20.363 97.2874C19.7894 97.2874 19.2948 97.5136 18.8966 97.9564C18.4938 98.3828 18.2894 98.9234 18.2894 99.5631C18.2894 100.201 18.4925 100.75 18.8941 101.195C19.2948 101.642 19.7894 101.868 20.363 101.868C20.9367 101.868 21.4309 101.642 21.8324 101.195C22.2344 100.749 22.4375 100.2 22.4375 99.5631C22.4375 98.9243 22.2332 98.3837 21.8324 97.9593C21.4309 97.5136 20.9367 97.2874 20.363 97.2874ZM34.2017 105.008C33.1895 104.008 32.0592 103.424 30.8367 103.424C28.9836 103.424 27.4432 104.137 26.2589 105.54C25.0598 106.932 24.4513 108.724 24.4513 110.865C24.4513 112.958 25.05 114.744 26.2334 116.176C27.4262 117.561 28.9751 118.263 30.8367 118.263C32.131 118.263 33.2435 117.862 34.1503 117.072V117.413C34.1503 118.643 33.8537 119.6 33.2694 120.257C32.6856 120.913 31.8757 121.246 30.863 121.246C29.3133 121.246 28.3419 120.569 27.1594 118.794L24.8732 121.234L24.9349 121.33C25.4286 122.1 26.185 122.854 27.1832 123.57C28.1817 124.283 29.437 124.646 30.9145 124.646C32.9078 124.646 34.52 123.963 35.7072 122.617C36.9013 121.264 37.5068 119.452 37.5068 117.233V103.77H34.2017V105.008ZM33.3213 113.764C32.7344 114.504 31.981 114.863 31.0181 114.863C30.0557 114.863 29.3065 114.504 28.7282 113.765C28.1528 113.029 27.8605 112.053 27.8605 110.865C27.8605 109.658 28.1528 108.67 28.7286 107.929C29.2989 107.196 30.0693 106.824 31.0181 106.824C31.9802 106.824 32.734 107.185 33.3208 107.931C33.9055 108.672 34.2017 109.659 34.2017 110.865C34.2017 112.053 33.9055 113.028 33.3213 113.764ZM40.3802 118.594H43.7376V103.77H40.3802V118.594ZM42.0914 97.2874C41.5173 97.2874 41.0227 97.5136 40.6245 97.9564C40.2217 98.3828 40.0173 98.9234 40.0173 99.5631C40.0173 100.201 40.2204 100.75 40.622 101.195C41.0227 101.642 41.5173 101.868 42.0914 101.868C42.6646 101.868 43.1588 101.642 43.5608 101.195C43.9623 100.749 44.1655 100.2 44.1655 99.5631C44.1655 98.9243 43.9611 98.3837 43.5608 97.9593C43.1588 97.5136 42.6646 97.2874 42.0914 97.2874ZM51.0961 99.7647H47.791V103.77H45.8716V107.17H47.791V113.328C47.791 115.254 48.1373 116.633 48.821 117.425C49.5064 118.22 50.7234 118.624 52.4384 118.624C52.984 118.624 53.533 118.603 54.0697 118.565L54.221 118.553V115.156L53.0699 115.223C52.2706 115.223 51.7369 115.067 51.4832 114.76C51.2261 114.448 51.0961 113.788 51.0961 112.799V107.17H54.221V103.77H51.0961V99.7647ZM65.7434 104.879H65.743C64.7257 103.914 63.3192 103.424 61.5633 103.424C60.4462 103.424 59.4017 103.697 58.4567 104.229C57.5826 104.722 56.7243 105.538 56.1786 106.605L56.2126 106.65L58.3624 108.937C59.2479 107.369 60.2325 106.824 61.5378 106.824C62.2394 106.824 62.8216 107.033 63.269 107.445C63.7139 107.854 63.9306 108.375 63.9306 109.035V109.755C63.0982 109.474 62.2679 109.331 61.4601 109.331C59.7893 109.331 58.4299 109.768 57.4199 110.629C56.3971 111.501 55.8786 112.749 55.8786 114.337C55.8786 115.73 56.3159 116.862 57.1811 117.703C58.0539 118.514 59.1442 118.926 60.4228 118.926C61.701 118.926 62.8968 118.354 63.9825 117.374V118.594H67.288V109.065C67.288 107.26 66.7683 105.852 65.7434 104.879ZM59.7825 112.93C60.1632 112.634 60.7012 112.486 61.3819 112.486C62.1901 112.486 63.0472 112.666 63.9306 113.022V114.476C63.201 115.23 62.2262 115.612 61.0326 115.612C60.4513 115.612 59.9996 115.469 59.689 115.185C59.3843 114.907 59.236 114.554 59.236 114.107C59.236 113.598 59.4149 113.213 59.7825 112.93ZM69.9629 118.594H73.3203V97.5466H69.9629V118.594ZM85.5013 118.912C80.1166 118.912 75.736 114.044 75.736 108.061C75.736 102.078 80.1166 97.2104 85.5013 97.2104C90.886 97.2104 95.2666 102.078 95.2666 108.061C95.2666 114.044 90.886 118.912 85.5013 118.912ZM85.5013 101.034C82.0143 101.034 79.1775 104.186 79.1775 108.061C79.1775 111.936 82.0143 115.087 85.5013 115.087C88.9883 115.087 91.8251 111.936 91.8251 108.061C91.8251 104.186 88.9883 101.034 85.5013 101.034ZM107.238 113.294C106.637 114.041 106.023 114.69 105.549 115.027V115.027C105.085 115.358 104.499 115.526 103.809 115.526C102.819 115.526 102.024 115.126 101.376 114.302C100.732 113.481 100.405 112.428 100.405 111.167C100.405 109.908 100.727 108.855 101.364 108.041C102.003 107.222 102.794 106.824 103.783 106.824C104.864 106.824 106.004 107.571 106.981 108.854L109.2 106.49C107.753 104.398 105.908 103.424 103.705 103.424C101.862 103.424 100.264 104.17 98.9563 105.641C97.6551 107.101 96.9957 108.961 96.9957 111.167C96.9957 113.375 97.6547 115.239 98.9542 116.709C100.255 118.18 101.853 118.926 103.705 118.926C106.136 118.926 108.098 117.76 109.421 115.624L107.238 113.294ZM121.017 105.841C120.541 105.104 119.893 104.511 119.089 104.077C118.288 103.644 117.355 103.424 116.315 103.424C114.441 103.424 112.908 104.193 111.756 105.709C110.638 107.214 110.072 109.084 110.072 111.269C110.072 113.515 110.694 115.375 111.92 116.795C113.138 118.209 114.77 118.926 116.769 118.926C119.033 118.926 120.891 117.909 122.29 115.902L122.366 115.794L120.176 113.455C119.973 113.727 119.685 114.036 119.423 114.311C119.091 114.659 118.78 114.928 118.447 115.112C117.945 115.389 117.382 115.526 116.752 115.526C115.822 115.526 115.052 115.222 114.463 114.623C113.912 114.062 113.59 113.305 113.505 112.371H122.399L122.429 111.009C122.429 110.046 122.311 109.117 122.078 108.25C121.846 107.38 121.488 106.57 121.017 105.841ZM113.679 109.331C113.841 108.622 114.135 108.032 114.556 107.573C115.011 107.075 115.603 106.824 116.316 106.824C117.13 106.824 117.76 107.081 118.188 107.59C118.585 108.06 118.809 108.645 118.856 109.331H113.679ZM133.91 104.879H133.91C132.892 103.914 131.486 103.424 129.73 103.424C128.613 103.424 127.568 103.697 126.623 104.229C125.749 104.722 124.891 105.538 124.345 106.605L124.379 106.65L126.529 108.937C127.415 107.369 128.399 106.824 129.705 106.824C130.406 106.824 130.988 107.033 131.436 107.445C131.881 107.854 132.097 108.375 132.097 109.035V109.755C131.265 109.474 130.435 109.331 129.626 109.331C127.956 109.331 126.596 109.768 125.587 110.629C124.564 111.501 124.045 112.749 124.045 114.337C124.045 115.73 124.483 116.862 125.348 117.703C126.22 118.514 127.311 118.926 128.59 118.926C129.868 118.926 131.064 118.354 132.149 117.374V118.594H135.455V109.065C135.455 107.26 134.935 105.852 133.91 104.879ZM127.949 112.93C128.33 112.634 128.868 112.486 129.549 112.486C130.357 112.486 131.214 112.666 132.097 113.022V114.476C131.367 115.23 130.393 115.612 129.199 115.612C128.618 115.612 128.166 115.469 127.856 115.185C127.551 114.907 127.403 114.554 127.403 114.107C127.403 113.598 127.582 113.213 127.949 112.93ZM148.37 105.17C147.435 104.012 146.121 103.424 144.464 103.424C143.132 103.424 142.05 103.849 141.241 104.688V103.77H137.949V118.594H141.306V110.419C141.306 109.295 141.547 108.404 142.021 107.767C142.494 107.133 143.145 106.824 144.01 106.824C144.77 106.824 145.347 107.099 145.772 107.667C146.199 108.236 146.415 109.021 146.415 110.001V118.594H149.773V110.001C149.773 107.948 149.301 106.323 148.37 105.17Z" fill="#0080FF"/>
</svg>
