<svg width="90" height="100" viewBox="0 0 90 100" fill="none" xmlns="http://www.w3.org/2000/svg">
<path d="M22.5 99.9984C34.92 99.9984 45 92.5317 45 83.3317V66.665H22.5C10.08 66.665 0 74.1317 0 83.3317C0 92.5317 10.08 99.9984 22.5 99.9984Z" fill="#0ACF83"/>
<path d="M0 50.0016C0 40.8016 10.08 33.335 22.5 33.335H45V66.6683H22.5C10.08 66.6683 0 59.2016 0 50.0016Z" fill="#A259FF"/>
<path d="M0 16.6667C0 7.46667 10.08 0 22.5 0H45V33.3333H22.5C10.08 33.3333 0 25.8667 0 16.6667Z" fill="#F24E1E"/>
<path d="M45 0H67.5C79.92 0 90 7.46667 90 16.6667C90 25.8667 79.92 33.3333 67.5 33.3333H45V0Z" fill="#FF7262"/>
<path d="M90 50.0016C90 59.2016 79.92 66.6683 67.5 66.6683C55.08 66.6683 45 59.2016 45 50.0016C45 40.8016 55.08 33.335 67.5 33.335C79.92 33.335 90 40.8016 90 50.0016Z" fill="#1ABCFE"/>
</svg>
