<svg width="125" height="125" viewBox="0 0 125 125" fill="none" xmlns="http://www.w3.org/2000/svg">
<path d="M98.0956 96.2226C98.0956 102.905 82.373 108.29 62.9882 108.29C43.6035 108.29 27.8809 102.857 27.8809 96.2226C27.8809 89.5399 43.6035 84.1553 62.9882 84.1553C82.373 84.1553 98.0956 89.5399 98.0956 96.2226Z" fill="#9EDCF2"/>
<path d="M98.0956 96.2226C98.0956 102.905 82.373 108.29 62.9882 108.29C43.6035 108.29 27.8809 102.857 27.8809 96.2226C27.8809 89.5399 43.6035 84.1553 62.9882 84.1553C82.373 84.1553 98.0956 89.5399 98.0956 96.2226Z" fill="#7DBCE7"/>
<path d="M22.9004 60.6992L21.875 64.1608C21.875 64.1608 21.6309 65.4108 22.8028 65.6512C24.0723 65.6032 23.9747 64.4493 23.877 64.1127L22.9004 60.6992Z" fill="#9EDCF2"/>
<path d="M124.902 46.1294L125 45.6967C114.697 43.6775 104.15 43.6294 97.7539 43.9179C98.7793 40.216 99.1211 35.889 99.1211 31.1294C99.1211 24.2544 96.4844 18.7737 92.2852 14.6391C93.0176 12.2833 93.9941 7.0429 91.3086 0.360204C91.3086 0.360204 86.5234 -1.13018 75.6348 6.03328C71.3867 4.97559 66.8457 4.44674 62.3047 4.44674C57.3242 4.44674 52.2949 5.07174 47.5586 6.32174C36.3281 -1.22633 31.3965 0.312127 31.3965 0.312127C28.1738 8.24482 30.1758 14.1583 30.7617 15.6006C26.9531 19.639 24.6582 24.7833 24.6582 31.0814C24.6582 35.841 25.1953 40.1198 26.5625 43.8217C20.1172 43.5814 9.96094 43.6775 0 45.6487L0.0976562 46.0814C10.0586 44.1102 20.3125 44.0621 26.709 44.3025C27.002 45.0717 27.3438 45.841 27.6855 46.5621C21.3379 46.7544 10.5469 47.5717 0.195312 50.4564L0.341797 50.889C10.791 48.0044 21.6797 47.2352 27.9785 47.0429C31.7871 53.966 39.209 58.4852 52.4902 59.8794C50.5859 61.1294 48.6816 63.2448 47.9004 66.8506C45.3125 68.0525 37.207 71.0333 32.3242 62.7641C32.3242 62.7641 29.5898 57.8602 24.3652 57.4756C24.3652 57.4756 19.2871 57.3794 24.0234 60.6006C24.0234 60.6006 27.3926 62.1871 29.7363 68.1006C29.7363 68.1006 32.8125 78.1967 47.5098 74.9275V85.2641C47.5098 85.2641 47.2168 88.966 43.75 90.1679C43.75 90.1679 41.6992 91.5621 43.8965 92.3314C43.8965 92.3314 53.418 93.1006 53.418 85.4083V74.0621C53.418 74.0621 53.0273 69.5429 55.2734 68.0044V86.6583C55.2734 86.6583 55.127 91.1294 52.7832 92.8121C52.7832 92.8121 51.2207 95.5525 54.6387 94.8314C54.6387 94.8314 61.1816 93.9179 61.4746 86.3698L61.6211 67.4756H63.1836L63.3301 86.3698C63.623 93.8698 70.166 94.8314 70.166 94.8314C73.584 95.6006 72.0215 92.8121 72.0215 92.8121C69.6777 91.1294 69.5312 86.6583 69.5312 86.6583V68.1487C71.7773 69.8794 71.3867 74.0621 71.3867 74.0621V85.4083C71.3867 93.1006 80.9082 92.3314 80.9082 92.3314C83.1055 91.5621 81.0547 90.1679 81.0547 90.1679C77.6367 88.9179 77.2949 85.2641 77.2949 85.2641V70.3602C77.2949 64.5429 74.8047 61.466 72.3633 59.8794C86.5234 58.4852 93.3105 54.014 96.4355 46.9948C102.637 47.139 113.818 47.9083 124.463 50.889L124.609 50.4564C114.014 47.5237 102.93 46.7544 96.6309 46.5621C96.9238 45.841 97.168 45.1198 97.4121 44.3506C103.955 44.1102 114.551 44.1102 124.902 46.1294Z" fill="#010101"/>
<path d="M85.2539 30.7894C88.2813 33.5298 90.0879 36.7991 90.0879 40.3087C90.0879 56.8471 77.5879 57.2798 62.1582 57.2798C46.7285 57.2798 34.2285 54.9721 34.2285 40.3087C34.2285 36.7991 35.9863 33.5298 39.0137 30.8375C44.043 26.3183 52.5391 28.7221 62.1582 28.7221C71.7773 28.7221 80.2246 26.2702 85.2539 30.7894Z" fill="#F5CCB3"/>
<path d="M52.8809 41.1747C52.8809 45.7421 50.293 49.3959 47.0703 49.3959C43.8477 49.3959 41.2598 45.694 41.2598 41.1747C41.2598 36.6074 43.8477 32.9536 47.0703 32.9536C50.293 32.9055 52.8809 36.6074 52.8809 41.1747Z" fill="white"/>
<path d="M51.0254 41.2718C51.0254 44.3006 49.2676 46.7525 47.168 46.7525C45.0195 46.7525 43.3105 44.3006 43.3105 41.2718C43.3105 38.2429 45.0684 35.791 47.168 35.791C49.2676 35.791 51.0254 38.2429 51.0254 41.2718Z" fill="#AF5C51"/>
<path d="M84.082 41.1747C84.082 45.7421 81.4941 49.3959 78.2715 49.3959C75.0488 49.3959 72.4609 45.694 72.4609 41.1747C72.4609 36.6074 75.0488 32.9536 78.2715 32.9536C81.4453 32.9055 84.082 36.6074 84.082 41.1747Z" fill="white"/>
<path d="M82.1777 41.2718C82.1777 44.3006 80.4199 46.7525 78.3203 46.7525C76.1719 46.7525 74.4629 44.3006 74.4629 41.2718C74.4629 38.2429 76.2207 35.791 78.3203 35.791C80.4687 35.791 82.1777 38.2429 82.1777 41.2718Z" fill="#AF5C51"/>
<path d="M63.7207 48.4882C63.7207 49.2574 63.0859 49.9305 62.2559 49.9305C61.4746 49.9305 60.791 49.3055 60.791 48.4882C60.791 47.6709 61.4258 47.0459 62.2559 47.0459C63.0371 47.0459 63.7207 47.6709 63.7207 48.4882Z" fill="#AF5C51"/>
<path d="M58.8867 52.0904C58.789 51.8501 58.9355 51.6097 59.1797 51.5135C59.4238 51.4174 59.6679 51.5616 59.7656 51.802C60.1562 52.8597 61.1328 53.5328 62.2558 53.5328C63.3789 53.5328 64.3554 52.8116 64.7461 51.802C64.8437 51.5616 65.0879 51.4174 65.332 51.5135C65.5762 51.6097 65.7226 51.8501 65.625 52.0904C65.1367 53.4847 63.7695 54.4462 62.2558 54.4462C60.7422 54.4462 59.375 53.4847 58.8867 52.0904Z" fill="#AF5C51"/>
<path d="M26.6113 58.6262C26.6113 59.0108 26.1719 59.2993 25.5859 59.2993C25.0488 59.2993 24.5605 59.0108 24.5605 58.6262C24.5605 58.2416 25 57.9531 25.5859 57.9531C26.1719 57.9531 26.6113 58.2416 26.6113 58.6262Z" fill="#C4E5D9"/>
<path d="M29.4434 60.1701C29.4434 60.5548 29.0039 60.8432 28.418 60.8432C27.8809 60.8432 27.3926 60.5548 27.3926 60.1701C27.3926 59.7855 27.832 59.4971 28.418 59.4971C29.0039 59.4971 29.4434 59.7855 29.4434 60.1701Z" fill="#C4E5D9"/>
<path d="M31.1523 62.189C31.1523 62.5736 30.7129 62.8621 30.127 62.8621C29.5898 62.8621 29.1016 62.5736 29.1016 62.189C29.1016 61.8043 29.541 61.5158 30.127 61.5158C30.7129 61.4677 31.1523 61.8043 31.1523 62.189Z" fill="#C4E5D9"/>
<path d="M32.7149 64.496C32.7149 64.8807 32.2754 65.1691 31.6895 65.1691C31.1524 65.1691 30.6641 64.8807 30.6641 64.496C30.6641 64.1114 31.1035 63.823 31.6895 63.823C32.2754 63.7749 32.7149 64.1114 32.7149 64.496Z" fill="#C4E5D9"/>
<path d="M34.4238 66.6091C34.4238 66.9937 33.9844 67.2822 33.3984 67.2822C32.8613 67.2822 32.373 66.9937 32.373 66.6091C32.373 66.2245 32.8125 65.936 33.3984 65.936C33.9844 65.936 34.4238 66.2245 34.4238 66.6091Z" fill="#C4E5D9"/>
<path d="M36.7676 68.4877C36.7676 68.8724 36.3281 69.1608 35.7422 69.1608C35.2051 69.1608 34.7168 68.8724 34.7168 68.4877C34.7168 68.1031 35.1562 67.8147 35.7422 67.8147C36.3281 67.7666 36.7676 68.1031 36.7676 68.4877Z" fill="#C4E5D9"/>
<path d="M40.0391 69.6858C40.0391 70.0704 39.5996 70.3589 39.0137 70.3589C38.4766 70.3589 37.9883 70.0704 37.9883 69.6858C37.9883 69.3012 38.4277 69.0127 39.0137 69.0127C39.5996 69.0127 40.0391 69.3012 40.0391 69.6858Z" fill="#C4E5D9"/>
<path d="M43.3105 69.6858C43.3105 70.0704 42.8711 70.3589 42.2852 70.3589C41.748 70.3589 41.2598 70.0704 41.2598 69.6858C41.2598 69.3012 41.6992 69.0127 42.2852 69.0127C42.8711 69.0127 43.3105 69.3012 43.3105 69.6858Z" fill="#C4E5D9"/>
<path d="M46.6309 69.1604C46.6309 69.545 46.1914 69.8335 45.6055 69.8335C45.0684 69.8335 44.5801 69.545 44.5801 69.1604C44.5801 68.7758 45.0195 68.4873 45.6055 68.4873C46.1426 68.4873 46.6309 68.7758 46.6309 69.1604Z" fill="#C4E5D9"/>
</svg>
