<svg width="100" height="125" viewBox="0 0 100 125" fill="none" xmlns="http://www.w3.org/2000/svg">
<path d="M1.43974 67.5899C1.6343 71.2752 5.64208 69.5578 7.43196 68.4128C9.14402 67.3037 9.64986 68.2339 9.8055 66.0872C9.92223 64.656 10.0779 63.2606 10.0001 61.8294C7.39305 61.6147 4.59149 62.1872 2.45142 63.6184C1.32301 64.334 -0.700335 66.6954 1.43974 67.5899Z" fill="#F6D2A2"/>
<path d="M81.3229 112.885C84.3968 114.638 90.0388 119.933 85.4085 122.509C80.9727 126.231 78.4824 118.395 74.5914 117.321C76.2645 115.21 78.3657 113.278 81.3229 112.885Z" fill="#F6D2A2"/>
<path d="M26.3035 118.862C22.6848 119.363 20.6615 122.368 17.6264 123.907C14.786 125.445 13.6965 123.406 13.463 122.976C13.035 122.798 13.0739 123.155 12.3735 122.511C9.72757 118.683 15.0972 115.892 17.8988 113.996C21.7899 113.28 24.2412 116.393 26.3035 118.862Z" fill="#F6D2A2"/>
<path d="M98.4047 67.1261C98.2102 70.8115 94.2024 69.0941 92.4125 67.9491C90.7004 66.8399 90.1946 67.7702 90.039 65.6234C89.9222 64.1922 89.7666 62.7967 89.8444 61.3655C92.4514 61.1508 95.253 61.7233 97.393 63.1545C98.4825 63.8701 100.545 66.2316 98.4047 67.1261Z" fill="#F6D2A2"/>
<path d="M87.7821 22.183C101.673 17.6748 90.8171 0.17847 78.716 7.9069C70.7782 1.64544 59.8444 0.500488 48.3658 0.500488C37.1206 1.32342 26.4202 3.21975 18.9494 9.23075C6.88715 2.0748 -4.24126 19.2491 9.92217 23.5784C5.95329 37.7472 10.4669 52.2023 9.84435 66.6215C9.26069 79.5738 5.56419 96.927 13.3852 108.555C20.0389 118.502 34.358 122.044 46.1479 122.438C61.2062 122.939 79.4553 119.54 86.7704 106.122C93.7743 93.349 91.8288 77.427 90.9339 63.6518C90.0389 49.7335 91.7121 35.6004 87.7821 22.183Z" fill="#69D7E2"/>
<path d="M99.4553 64.9274C99.0662 64.176 98.3269 63.3173 97.6265 62.8521C95.8366 61.6714 93.5409 61.0274 91.1673 60.9558C91.0895 58.7375 91.0117 56.3044 91.0117 53.2274V50.4365C90.9728 41.6347 90.8561 37.7705 90.3113 32.9402C89.8833 29.1476 89.2218 25.6411 88.288 22.3494C91.4397 21.2402 93.502 19.4155 94.3191 17.054C95.0973 14.8714 94.7082 12.4026 93.3852 10.2201C92.0234 8.07327 89.8444 6.46318 87.3152 5.81914C84.5915 5.13932 81.6343 5.64024 78.7938 7.39345C76.2646 5.42556 73.3463 3.92281 70.0778 2.77786C64.2802 0.80997 57.5487 0.0585938 48.4047 0.0585938V0.416392L48.3658 0.0585938C38.5992 0.77419 31.3619 2.1696 25.3697 4.85309C22.9572 5.92648 20.8171 7.21455 18.9494 8.7173C16.0701 7.07143 13.074 6.67786 10.3113 7.46501C7.74321 8.18061 5.52531 9.86226 4.20236 12.0448C2.8794 14.2274 2.56811 16.732 3.46306 18.8788C4.358 21.0256 6.42025 22.7072 9.49418 23.7448C8.52142 27.3586 8.01559 31.187 7.93776 35.409C7.85994 39.5237 8.0545 42.8154 8.75488 50.2576C9.26072 55.8035 9.45527 58.3439 9.53309 61.4209C6.88718 61.3136 4.24127 61.9576 2.25683 63.2815C1.55644 63.7466 0.778231 64.5696 0.428037 65.3567C-0.0777998 66.3586 0.116753 67.2531 1.12843 67.7897C1.28407 69.5072 2.33465 70.2943 3.92998 70.1512C5.0973 70.0439 6.49808 69.4714 7.7043 68.6842C7.97667 68.5053 8.24905 68.3622 8.52142 68.2549C8.63815 68.2191 8.71597 68.1833 8.83271 68.1475C8.83271 68.1475 9.06617 68.076 9.14399 68.0402C9.26072 68.0044 9.37745 67.9686 9.45527 67.8971C9.37745 69.5787 9.22181 71.3319 8.87162 75.3393C8.48251 79.8475 8.28796 82.3163 8.21014 85.0714C7.85994 95.3044 9.1829 102.747 13.1518 108.65C14.3969 110.511 15.9144 112.157 17.7043 113.659C17.3541 113.874 15.8755 114.876 15.4086 115.198C13.7743 116.343 12.6459 117.309 11.9845 118.382C11.1284 119.778 11.1284 121.173 12.1012 122.64L12.1401 122.676L12.179 122.712C12.607 123.105 12.8405 123.213 13.1518 123.213H13.1907H13.2685C13.3074 123.284 13.3463 123.32 13.3852 123.392C13.502 123.57 13.6187 123.714 13.7354 123.857C14.7082 124.894 16.0701 125.145 17.8989 124.143C18.8716 123.678 19.572 123.141 21.0506 121.996C21.0895 121.96 21.0895 121.96 21.1284 121.925C23.502 120.064 24.6693 119.384 26.4203 119.134L27.0428 119.026C27.2763 119.134 27.5097 119.205 27.7821 119.313C33.3074 121.352 39.7276 122.461 46.2257 122.676C54.6304 122.962 62.7238 121.996 69.572 119.706C71.4008 119.098 73.1129 118.382 74.7471 117.595C75.7588 117.953 76.6148 118.704 78.249 120.458C78.3269 120.529 78.3269 120.529 78.3658 120.601C78.4436 120.672 78.4436 120.708 78.4825 120.744C78.5603 120.851 78.6771 120.923 78.7549 121.03C80.0389 122.425 80.895 123.105 81.8677 123.499C83.1518 124 84.3969 123.749 85.681 122.676C87.9378 121.388 88.0934 119.384 86.6148 117.094C85.5642 115.484 83.7354 113.803 82.0234 112.729C84.0467 110.904 85.7977 108.722 87.1596 106.253C90.895 99.3833 92.3347 91.3686 92.2568 81.064C92.2179 77.4145 92.0623 74.2301 91.6343 68.1475V67.9686C91.8288 68.0402 92.0234 68.1475 92.2179 68.2907C93.4241 69.042 94.8249 69.6503 95.9922 69.7576C97.5876 69.9007 98.6382 69.1136 98.7938 67.3962C99.7666 66.8237 99.9611 65.9292 99.4553 64.9274ZM87.0817 6.57052C89.4164 7.14299 91.4397 8.64574 92.6848 10.6494C93.93 12.6531 94.2802 14.9072 93.5798 16.9109C92.8405 19.0219 90.9728 20.7035 88.0545 21.7054C87.4708 19.7733 86.7704 17.8769 85.9922 16.0522C87.1206 15.1577 87.6654 14.0485 86.7704 12.4742C85.8755 10.8999 84.3191 10.721 82.7238 11.1861C81.7121 9.9696 80.5837 8.8962 79.4164 7.89437C81.9845 6.39162 84.6304 5.96226 87.0817 6.57052ZM4.12453 18.6641C3.30741 16.732 3.57979 14.4421 4.82492 12.4384C6.07006 10.4347 8.09341 8.86042 10.5059 8.21639C12.9961 7.53657 15.681 7.85859 18.3269 9.28978C16.8094 10.5421 15.4475 11.9733 14.2802 13.5476C12.2568 12.5815 10.1946 12.4026 9.02726 14.3705C7.82103 16.4815 9.22181 17.8054 11.2062 18.8072C10.9339 19.4155 10.6615 20.0595 10.428 20.7035C10.1557 21.4907 9.88329 22.3136 9.64983 23.1366C6.80936 22.1347 4.94166 20.5962 4.12453 18.6641ZM8.83271 67.4319C8.7938 67.4319 8.56033 67.5035 8.56033 67.5393C8.4436 67.5751 8.32687 67.6108 8.21014 67.6824C7.89885 67.7897 7.58757 67.9686 7.27629 68.1833C6.18679 68.8989 4.86383 69.4356 3.85216 69.5072C2.68485 69.6145 2.02337 69.1494 1.90664 67.8613C2.72376 67.6108 3.07395 67.432 3.38524 67.0026L2.76267 66.5732C2.5292 66.8595 2.29574 66.9668 1.59535 67.1815C1.55644 67.1815 1.55644 67.1815 1.51753 67.2173C0.894963 66.8952 0.778231 66.3943 1.12843 65.6787C1.43971 65.0347 2.1401 64.2833 2.72376 63.8897C4.59146 62.6375 7.08173 62.0292 9.57201 62.1723C9.57201 63.0668 9.61092 63.9613 9.57201 64.82C9.57201 64.9274 9.57201 64.9989 9.53309 65.1063C9.49418 65.6072 9.49418 65.8219 9.45527 66.0723C9.33854 67.1099 9.26072 67.2531 8.83271 67.4319ZM20.5837 121.424C20.5448 121.459 20.5448 121.459 20.5059 121.495C19.0662 122.64 18.3658 123.105 17.4708 123.57C15.9922 124.393 14.9806 124.214 14.2802 123.427C14.1634 123.32 14.0856 123.177 14.0078 123.07C13.9689 123.034 13.93 122.962 13.8911 122.926C13.8911 122.926 13.8911 122.926 13.8911 122.891C13.9689 122.247 14.2413 121.781 14.9417 120.78C14.9806 120.744 14.9806 120.744 14.9806 120.708C15.4086 120.136 15.6031 119.814 15.7977 119.42L15.0973 119.134C14.9417 119.456 14.7471 119.742 14.358 120.314C14.3191 120.35 14.3191 120.35 14.3191 120.386C13.6187 121.316 13.3074 121.889 13.1518 122.533H13.1129C13.1129 122.533 13.1129 122.533 13.074 122.533H12.9961C12.9183 122.497 12.8016 122.425 12.6459 122.282C11.1284 120.064 12.3347 118.168 15.7588 115.806C16.1868 115.52 17.6265 114.59 18.0156 114.303C18.0934 114.303 18.1712 114.268 18.249 114.232C20.3502 115.878 22.8016 117.309 25.5253 118.49C25.5253 118.525 25.5642 118.561 25.6031 118.597C24.0078 118.955 22.7627 119.706 20.5837 121.424ZM85.9144 117.524C87.1206 119.384 87.0817 120.887 85.5642 121.925C85.4475 121.71 85.3697 121.459 85.214 121.102C85.214 121.066 85.214 121.066 85.1751 121.03C84.6304 119.67 84.2802 119.098 83.6187 118.454L83.074 118.955C83.6576 119.456 83.93 119.992 84.4747 121.245C84.4747 121.281 84.4747 121.281 84.5136 121.316C84.7082 121.781 84.8249 122.068 84.9417 122.318C83.93 123.105 83.035 123.248 82.1012 122.855C81.2841 122.533 80.5059 121.853 79.2607 120.565C79.1829 120.493 79.1051 120.386 79.0273 120.279C78.9883 120.243 78.9494 120.207 78.9105 120.136C78.8327 120.064 78.8327 120.064 78.7938 119.992C77.3541 118.454 76.4981 117.631 75.5642 117.166C77.7432 116.021 79.6887 114.733 81.4397 113.23C83.0739 114.339 84.9028 115.985 85.9144 117.524ZM86.4592 105.931C83.1129 112.121 77.1985 116.486 69.2607 119.134C62.4903 121.388 54.4747 122.318 46.1868 122.032C31.9066 121.567 19.5331 116.987 13.7354 108.328C9.84438 102.568 8.56033 95.2328 8.91053 85.1429C9.02726 82.3879 9.1829 79.9191 9.57201 75.4108C10 70.3301 10.1168 68.8631 10.2335 66.5732C10.3113 64.9274 10.3113 63.2457 10.2724 61.4567C10.1946 58.3081 10 55.8035 9.49418 50.1861C8.79379 42.7439 8.59924 39.4879 8.67706 35.409C8.7938 30.0421 9.57201 25.3191 11.2062 20.8467C13.8522 13.5834 18.716 8.68152 25.7199 5.49712C31.5954 2.84942 38.716 1.48979 48.4047 0.77419C57.4708 0.77419 64.0856 1.52557 69.8055 3.45767C76.6537 5.78336 81.751 9.86226 85.2529 16.1237C87.5097 21.2045 88.8327 26.6788 89.5331 32.976C90.0778 37.7705 90.1946 41.6347 90.2335 50.4008V53.1916C90.2724 57.5209 90.3502 60.5622 90.5448 63.6035C90.6226 64.7842 90.6615 65.2852 90.8561 68.1118C91.2841 74.1943 91.4397 77.343 91.4786 80.9925C91.5564 91.2613 90.1557 99.1686 86.4592 105.931ZM98.3658 66.7521C98.3269 66.7521 98.288 66.7164 98.2491 66.7164C97.5487 66.5017 97.3152 66.3586 97.0817 66.1081L96.4592 66.5375C96.8094 66.9668 97.1596 67.1457 97.9378 67.3962C97.7821 68.6842 97.1206 69.1494 95.9922 69.042C94.9806 68.9705 93.6576 68.398 92.5681 67.7182C92.2568 67.5035 91.9456 67.3604 91.6343 67.2173C91.5954 67.2173 91.5564 67.1815 91.5175 67.1815C91.3619 65.2136 91.3619 64.7127 91.2841 63.6751C91.2452 63.031 91.2062 62.387 91.1673 61.743C93.3463 61.7787 95.4864 62.387 97.1206 63.4962C97.7043 63.8897 98.4047 64.6411 98.716 65.2852C99.1051 65.8934 99.0273 66.4301 98.3658 66.7521Z" fill="black"/>
<path d="M54.2647 37.3988C54.3036 39.2236 54.6927 41.2273 54.3425 43.1594C53.7977 44.0896 52.7861 44.197 51.8911 44.5548C50.646 44.3759 49.5954 43.6245 49.0896 42.5511C48.7783 40.3685 49.1674 38.2933 49.2841 36.1108C49.2841 36.0392 50.7627 36.1466 52.0857 36.5043C53.2141 36.8264 54.2647 37.3631 54.2647 37.3988Z" fill="white"/>
<path d="M43.253 37.5436C42.1635 41.3362 44.6927 47.5261 48.8561 42.4454C48.5448 40.2986 48.895 38.2234 49.0117 36.1124C49.0506 35.9335 43.2919 37.2931 43.253 37.5436Z" fill="white"/>
<path d="M54.7316 39.084C54.6538 38.0106 54.6148 37.5812 54.6148 37.0445V36.7941L54.3425 36.7225L49.4398 35.3271V35.0767L48.9339 35.184H48.895V35.2198L43.3697 36.5078L43.1752 36.5436L43.0973 36.7225C42.2413 38.6188 42.4359 41.4812 43.5254 43.2344C44.7705 45.2381 46.7938 45.2739 48.8561 42.984C49.4398 44.0216 50.5292 44.7372 51.7744 44.9161H51.8911L52.0078 44.8803C52.1635 44.8087 52.3191 44.7729 52.5915 44.6656C52.6304 44.6656 52.6304 44.6656 52.6693 44.6298C53.7977 44.272 54.2647 43.9858 54.6538 43.306L54.6927 43.2702V43.1986C54.8094 42.5546 54.8483 41.8748 54.8483 41.1234C54.8483 40.5867 54.8094 40.0858 54.7316 39.084ZM48.5059 37.7601C48.467 38.4042 48.4281 38.6546 48.3892 39.0124C48.3113 40.3363 48.3113 41.3381 48.4281 42.3399C46.5993 44.4867 45.1596 44.4867 44.1868 42.8766C43.253 41.3739 43.0584 38.8335 43.7588 37.1519L48.6615 36.0069C48.6226 36.4721 48.5837 36.9372 48.5059 37.7601ZM53.9534 43.0555C53.681 43.4849 53.3308 43.6996 52.3969 43.9858C52.358 43.9858 52.358 43.9858 52.3191 44.0216C52.0857 44.0931 51.93 44.1647 51.8133 44.2005C50.7627 44.0216 49.8678 43.3775 49.4398 42.483C49.323 41.517 49.323 40.5152 49.4008 39.1913C49.4398 38.8335 49.4398 38.5831 49.5176 37.939C49.5954 37.1161 49.6343 36.6152 49.6343 36.15L53.8755 37.3308C53.8755 37.7959 53.9145 38.2253 53.9923 39.1555C54.0701 40.1216 54.109 40.6225 54.109 41.195C54.109 41.8748 54.0701 42.483 53.9534 43.0555Z" fill="black"/>
<path d="M19.8307 21.817C23.4104 34.6261 45.7062 31.3344 44.8501 18.4894C43.8385 3.10414 16.4066 6.07386 19.8307 21.817Z" fill="white"/>
<path d="M45.2392 18.454C45.0057 14.7329 43.2158 11.8348 40.2586 10.01C37.6127 8.36413 34.1108 7.7201 30.6477 8.11368C27.1847 8.54303 23.994 9.97422 21.8929 12.2283C19.5582 14.7329 18.6633 18.0247 19.4804 21.8173L19.8306 21.7458L19.4804 21.8173C23.138 34.9843 46.0952 31.7999 45.2392 18.454ZM20.1808 21.7458C19.4026 18.132 20.2586 15.0549 22.4376 12.7293C24.4221 10.6183 27.4182 9.22285 30.7256 8.82927C34.033 8.43569 37.3403 9.04395 39.8306 10.6183C42.5933 12.3357 44.2664 15.0192 44.4999 18.5614C45.317 31.0485 23.6438 34.054 20.1808 21.7458Z" fill="black"/>
<path d="M25.9786 23.4679C28.0631 23.4679 29.7529 21.7859 29.7529 19.711C29.7529 17.6361 28.0631 15.9541 25.9786 15.9541C23.8941 15.9541 22.2043 17.6361 22.2043 19.711C22.2043 21.7859 23.8941 23.4679 25.9786 23.4679Z" fill="black"/>
<path d="M27.6905 21.5303C28.1847 21.5303 28.5854 21.0977 28.5854 20.5642C28.5854 20.0307 28.1847 19.5981 27.6905 19.5981C27.1962 19.5981 26.7955 20.0307 26.7955 20.5642C26.7955 21.0977 27.1962 21.5303 27.6905 21.5303Z" fill="white"/>
<path d="M51.0989 19.4212C53.8615 34.1267 80.0094 30.2267 76.2351 15.4139C72.8499 2.10383 50.165 5.78915 51.0989 19.4212Z" fill="white"/>
<path d="M76.5853 15.3421C73.1222 1.63842 49.7759 5.3953 50.7098 19.4567V19.4925C51.9938 26.4338 58.7254 29.976 66.1573 28.831C69.5425 28.2944 72.5775 26.7916 74.5619 24.5733C76.7409 22.1045 77.5191 18.92 76.5853 15.3421ZM73.9783 24.1439C72.1106 26.2191 69.2701 27.6503 66.0405 28.1512C58.9977 29.2246 52.6942 25.8971 51.4491 19.3852C50.5931 6.14667 72.6164 2.60448 75.8849 15.4852C76.7409 18.8843 76.0405 21.854 73.9783 24.1439Z" fill="black"/>
<path d="M57.5191 22.5343C59.5606 22.5343 61.2156 20.8522 61.2156 18.7774C61.2156 16.7025 59.5606 15.0205 57.5191 15.0205C55.4776 15.0205 53.8226 16.7025 53.8226 18.7774C53.8226 20.8522 55.4776 22.5343 57.5191 22.5343Z" fill="black"/>
<path d="M59.2311 20.6025C59.7039 20.6025 60.0872 20.17 60.0872 19.6365C60.0872 19.1029 59.7039 18.6704 59.2311 18.6704C58.7584 18.6704 58.3751 19.1029 58.3751 19.6365C58.3751 20.17 58.7584 20.6025 59.2311 20.6025Z" fill="white"/>
<path d="M44.0564 29.8189C40.9825 30.0693 38.4922 33.3969 40.0875 36.0446C42.1887 39.551 46.8969 35.7226 49.8152 36.0804C53.2004 36.1519 55.963 39.3721 58.6478 36.6528C61.6439 33.6473 57.3638 30.7134 53.9786 29.4253L44.0564 29.8189Z" fill="#F6D2A2"/>
<path d="M59.0369 32.2144C57.9863 30.9979 56.1576 29.8887 54.1731 29.1373L54.0953 29.1016H54.0175L44.0564 29.4594C40.5934 29.7456 38.1032 33.4309 39.7763 36.2217C40.4378 37.2951 41.3327 37.8318 42.5389 37.9034C43.4339 37.9392 44.3677 37.7603 45.8074 37.2951C45.9241 37.2594 46.0798 37.2236 46.2743 37.152C48.2198 36.5438 48.9981 36.3649 49.7763 36.4722H49.8152C50.749 36.4722 51.5272 36.7227 53.0058 37.2594C54.6401 37.8676 55.1459 38.0465 55.963 38.1181C57.0914 38.1896 58.0642 37.8318 58.9591 36.9373C60.4766 35.3988 60.3988 33.7529 59.0369 32.2144ZM58.3755 36.4364C57.6362 37.1878 56.8969 37.4383 56.0019 37.4025C55.3015 37.3667 54.8346 37.1878 53.2782 36.6153C51.7218 36.0071 50.8658 35.7924 49.8541 35.7566C48.8813 35.6493 48.0642 35.8282 46.002 36.4722C45.8074 36.5438 45.6518 36.5795 45.535 36.6153C42.6946 37.5098 41.3327 37.4382 40.3989 35.8639C38.9981 33.5383 41.1382 30.3896 44.0564 30.1392L53.9008 29.7814C55.7685 30.497 57.4416 31.5346 58.4144 32.6438C59.5817 33.9318 59.6206 35.2199 58.3755 36.4364Z" fill="#231F20"/>
<path d="M54.757 28.2788C53.5507 24.1998 43.434 24.8081 43.6675 29.6742C44.1733 33.288 55.9243 32.3219 54.757 28.2788Z" fill="black"/>
</svg>
