<svg width="125" height="100" viewBox="0 0 125 100" fill="none" xmlns="http://www.w3.org/2000/svg">
<path fill-rule="evenodd" clip-rule="evenodd" d="M116.385 41.4107C116.273 41.4739 116.16 42.1694 116.16 42.5485C116.137 45.0766 116.115 51.7769 116.115 56.3275C116.115 56.454 116.182 56.7066 116.25 56.7066C116.588 56.7698 117.399 56.8331 118.097 56.8331C119.066 56.8331 119.629 56.454 119.945 56.075C120.756 54.9372 121.139 52.4717 121.139 49.7538C121.139 43.623 119.607 41.2841 117.331 41.2841C117.174 41.2214 116.723 41.2214 116.385 41.4107ZM122.198 69.6642C122.198 63.4068 120.553 59.9301 117.579 59.9301C117.444 59.9301 116.498 59.8669 116.273 59.9934C116.205 60.0567 116.115 60.1833 116.115 60.3731C116.115 64.8604 116.092 72.0031 116.16 74.7837C116.205 75.9848 116.52 77.6915 116.903 78.1971C117.309 78.8293 118.233 78.9552 118.863 78.9552C120.643 78.9552 122.198 76.1746 122.198 69.6642ZM111.789 37.9346C112.014 37.9346 112.69 38.1238 114.425 38.1238C116.07 38.1238 117.376 37.9978 118.976 37.9978C120.936 37.9978 123.64 39.9571 123.64 48.1736C123.64 52.2192 122.626 55.4428 121.297 57.0229C121.229 57.0862 121.229 57.2122 121.297 57.2755C123.189 58.6031 124.856 61.89 124.856 68.084C124.856 74.1521 123.505 78.0073 121.544 80.4094C120.35 81.863 118.863 82.3687 117.354 82.3687C116.205 82.3687 113.118 81.9896 111.406 82.1161C111.226 81.9263 111.564 79.6507 111.722 79.2716C112.127 79.2084 112.442 79.1451 112.871 78.766C113.479 78.3237 113.546 77.818 113.637 75.2266C113.682 73.0143 113.682 65.1762 113.682 59.6144C113.682 51.9661 113.704 46.7833 113.682 44.2552C113.659 42.296 113.411 41.6638 112.916 41.2841C112.533 41.0949 111.902 40.8418 111.384 40.6525C111.271 40.3361 111.654 38.1871 111.789 37.9346ZM98.7894 77.2491C99.3303 78.4496 100.389 78.9552 101.335 78.9552C102.552 78.9552 103.769 78.3237 104.94 75.3526C106.134 72.3188 106.968 67.6417 106.968 60.1833C106.968 53.0406 105.999 47.2257 104.016 43.8128C102.89 41.853 101.448 41.0316 99.7808 41.0316C99.2852 41.0316 98.812 41.0949 98.5192 41.4739C98.4515 41.6005 98.2938 42.1694 98.2938 42.4852C98.2487 43.7496 98.2487 53.483 98.2487 59.172C98.2487 65.0503 98.2487 73.2668 98.2938 74.2148C98.2938 75.1634 98.4515 76.617 98.7894 77.2491ZM93.6751 37.9346C94.1033 37.9346 95.7479 38.1238 96.5364 38.1238C97.9559 38.1238 98.9696 37.9346 101.651 37.9346C103.904 37.9346 105.796 39.6413 107.148 42.8643C108.793 46.8466 109.649 52.3458 109.649 59.0455C109.649 68.5896 108.094 74.0888 106.54 77.2491C104.985 80.4727 102.957 82.3687 100.074 82.3687C98.5417 82.3687 95.9058 82.2421 93.7203 82.1788H93.6977C93.5851 81.6105 93.8779 79.3982 94.0582 79.3349C94.6439 79.1451 94.8016 79.0818 95.0946 78.766C95.5676 78.2604 95.6579 77.5649 95.7255 75.2266C95.793 70.8652 95.7704 65.6192 95.7704 59.6776C95.7704 55.4428 95.793 47.1624 95.7479 44.5077C95.6804 42.296 95.3425 41.7271 94.6665 41.3474C94.3286 41.1582 93.8779 40.905 93.2472 40.7158C93.157 40.2729 93.5626 38.3136 93.6751 37.9346Z" fill="#8E714E"/>
<path fill-rule="evenodd" clip-rule="evenodd" d="M66.4144 79.7134C65.8512 79.5236 65.4456 79.2711 64.9498 78.6389C64.8824 78.5123 64.7696 77.8807 64.7696 77.6276C64.7245 75.4153 64.7245 69.0947 64.7245 64.8598C64.7245 61.4464 64.5219 58.4759 64.0036 56.3901C63.3952 53.988 62.5166 52.5977 61.3902 52.5977C60.3988 52.5977 59.0695 54.4942 57.9656 57.1489C57.9431 57.2116 57.7628 57.6545 57.7854 56.959C57.7854 56.2636 57.8305 54.8733 57.8531 53.9253C57.8756 53.04 57.6954 52.5977 57.6954 52.5977C56.9743 53.6089 54.9466 54.9365 54.2032 55.1258C53.6625 55.4422 53.5274 56.8958 54.0906 57.4014H54.1132C54.7213 57.907 55.1269 58.4759 55.4422 59.0448C55.6676 59.5505 55.645 60.2459 55.645 60.8148C55.6676 65.5553 55.6676 72.8239 55.6001 76.8062C55.5775 78.3864 55.4199 78.9547 55.0143 79.2078L55.0592 79.1445C54.7439 79.3343 54.496 79.5236 54.113 79.6501C53.9778 80.0292 53.9778 82.0523 54.113 82.4946C54.3609 82.4946 55.6676 82.3048 56.7491 82.3048C58.2361 82.3048 59.0021 82.4946 59.3851 82.4946C59.5428 81.989 59.5879 80.0925 59.4977 79.6501C59.0695 79.5868 58.7542 79.4609 58.4614 79.2078C58.0558 78.9547 57.9431 78.3864 57.9205 77.0587C57.8756 73.7086 57.8756 66.6298 57.8756 61.8261C57.8756 60.4984 58.0107 59.8663 58.1458 59.4872C58.664 58.2234 59.4977 57.3381 60.2411 57.3381C60.962 57.3381 61.4353 57.9703 61.7957 58.7923C62.2913 59.9295 62.449 61.573 62.5166 62.774C62.6292 65.492 62.5843 70.8647 62.5843 75.5418C62.5843 78.07 62.5166 78.7021 62.1787 79.0179C62.0211 79.2078 61.6155 79.4609 61.1423 79.5868C60.9846 80.0292 61.0297 81.989 61.1423 82.4314C61.7957 82.4314 62.5617 82.2415 63.6882 82.2415C65.0849 82.2415 65.9863 82.4314 66.3467 82.4314C66.4593 82.0523 66.5044 80.219 66.4142 79.7134H66.4144ZM72.6551 55.5687C71.461 55.5687 70.7175 58.1601 70.7175 62.2051C70.7175 66.3134 71.3708 71.0539 73.2184 71.0539C73.5337 71.0539 74.1195 70.6748 74.3897 69.7901C74.8179 68.6523 75.1109 66.3767 75.1109 63.9751C75.1109 58.729 74.187 55.5687 72.6551 55.5687ZM72.4972 83.5059C72.0468 83.5059 71.7312 83.885 71.5286 84.2013C70.5822 85.9075 70.1543 87.5509 70.1543 89.5107C70.1543 91.3434 70.402 92.797 70.9429 94.0613C71.5961 95.6415 72.4972 96.4002 73.6463 96.4002C75.9443 96.4002 76.9582 92.9235 76.9582 89.5107C76.9582 87.1085 76.5301 85.5284 75.6515 84.6437C75.0206 83.885 73.8716 83.5059 72.4972 83.5059ZM72.6551 99.9396C71.2808 99.9396 70.2894 99.1176 69.4334 97.2849C68.5997 95.5149 68.2392 92.8603 68.2392 91.0276C68.2392 90.522 68.2843 89.131 68.6899 87.8673C68.9376 87.1085 69.4783 85.6549 70.7626 83.1901C70.8075 83.1268 70.8301 83.0635 70.8301 82.937C70.8301 82.8104 70.785 82.6839 70.7401 82.6212C69.6811 81.4834 69.3657 79.6501 69.2755 78.6389V78.5123C69.2531 78.1332 69.208 77.7542 69.4108 77.3745C69.5685 77.0587 69.7938 76.6796 70.0415 76.2373C70.4245 75.6051 70.8301 74.9097 71.078 74.3408C71.1231 74.2142 71.1231 74.0882 71.1231 73.9617C71.1231 73.8351 71.078 73.7086 71.0329 73.6459C69.4559 72.1917 68.6673 68.9048 68.6673 63.9751C68.6673 60.7515 69.1855 57.8437 70.1092 56.0111C70.7401 54.6202 72.317 52.914 73.3535 52.914H73.4211C74.48 52.9767 75.0658 53.6089 75.8992 54.4309C76.3499 54.8733 76.778 55.0625 77.3638 55.0625C78.2424 55.0625 78.6254 54.3044 78.9407 53.4197C78.9633 53.5456 79.0084 53.862 79.031 54.6834C79.0535 55.5054 78.9633 56.7059 78.738 57.5912C78.5577 58.2861 78.1524 58.7923 77.7468 58.7923H77.634C77.2285 58.6658 77.0483 58.5392 77.0483 58.5392L76.9582 58.6658C76.9357 58.7923 76.9582 58.9183 76.9808 59.1081L77.0034 59.2347C77.0483 59.8036 77.1385 61.5097 77.1385 61.9526C77.1385 67.1354 76.395 69.4105 75.6064 71.1172C74.8404 72.6973 73.9618 73.7086 72.9705 73.9617C72.9479 73.9617 72.8579 73.9617 72.6551 74.025C72.5423 74.025 72.3847 74.0882 72.3621 74.0882H72.3396C72.1593 74.2142 71.7089 74.8464 71.7089 75.9209C71.7089 76.8689 71.9117 78.0067 72.8802 78.1965C73.083 78.2598 73.2858 78.2598 73.5112 78.3231C74.7953 78.5756 76.395 78.892 77.1385 79.5868C78.1747 80.6614 78.8282 83.2528 78.8282 86.3504C78.8282 91.0276 77.634 95.389 75.6515 98.1064C74.6827 99.3074 73.7139 99.9396 72.6551 99.9396ZM85.497 55.8845C85.0238 55.8845 84.5957 56.2003 84.2803 56.8325C83.4018 58.3494 82.9511 61.3837 82.9511 65.8078C82.9511 74.0882 84.438 79.9032 86.5558 79.9032C87.1868 79.9032 87.6823 79.3976 88.1104 78.3864C88.7637 76.8689 89.1018 73.8351 89.1018 69.6003C89.1018 61.3837 87.6372 55.8845 85.497 55.8845ZM85.9026 82.937C82.0725 82.937 80.6981 75.0362 80.6981 67.6411C80.6981 62.4582 81.4416 58.4759 82.9285 55.6314C83.9875 53.7987 85.2491 52.7875 86.3756 52.7875C89.3044 52.7875 91.3548 58.6658 91.3548 67.1354C91.3548 72.8872 90.5436 77.4378 88.989 80.219C88.2456 81.6094 86.9614 82.937 85.9024 82.937H85.9026ZM45.7546 55.8845C45.2814 55.8845 44.8535 56.2003 44.5379 56.8325C43.6593 58.3494 43.2087 61.3837 43.2087 65.8078C43.2087 74.0882 44.6956 79.9032 46.8134 79.9032C47.4443 79.9032 47.9399 79.3976 48.368 78.3864C49.0213 76.8689 49.3594 73.8351 49.3594 69.6003C49.3594 61.3837 47.9173 55.8845 45.7546 55.8845ZM46.1602 82.937C42.3301 82.937 40.9557 75.0362 40.9557 67.6411C40.9557 62.4582 41.6992 58.4759 43.1861 55.6314C44.2451 53.7987 45.5067 52.7875 46.6332 52.7875C49.5622 52.7875 51.6123 58.6658 51.6123 67.1354C51.6123 72.8872 50.8012 77.4378 49.2466 80.219C48.5257 81.6094 47.2415 82.937 46.1602 82.937ZM20.4087 82.3048C20.3636 82.1156 20.3185 81.5467 20.341 80.8512C20.341 80.3456 20.3861 80.0292 20.4087 79.9032C20.8817 79.7134 21.1296 79.5236 21.3998 79.3343C21.8505 79.0179 22.0307 78.3231 22.0533 76.7429C22.121 72.9504 22.121 65.7445 22.0984 60.7515V60.625C22.0984 60.0561 22.0984 59.3606 21.8505 58.855C21.4901 58.2234 21.0619 57.6545 20.4987 57.2116C20.2959 57.0223 20.1608 56.7059 20.1834 56.3269C20.1834 55.9478 20.3185 55.5054 20.6115 55.3789C21.3549 55.1891 23.2923 53.862 24.0584 52.914C24.1035 53.04 24.1711 53.4197 24.1711 53.9253L24.1486 54.6202C24.126 55.3156 24.1035 56.1376 24.1035 56.959C24.1035 57.2116 24.1937 57.4014 24.2837 57.4014C24.3288 57.4014 24.3739 57.3381 24.419 57.2748C25.8609 54.1145 27.1676 52.9767 27.8434 52.9767C28.9475 52.9767 29.8035 54.4309 30.457 57.4647C30.5019 57.6545 30.547 57.7172 30.6146 57.7172C30.6598 57.7172 30.7272 57.6545 30.7498 57.528C32.079 54.6834 33.4083 52.9767 34.2869 52.9767C36.3821 52.9767 37.6214 57.3381 37.6214 64.7333C37.6214 66.8191 37.6214 69.537 37.5988 72.0025C37.5988 74.2142 37.5763 76.2373 37.5763 77.6909C37.5763 78.0067 37.734 79.0179 37.9818 79.2078C38.2972 79.6501 38.7253 79.84 39.2886 80.0925H39.3111C39.3562 80.5348 39.266 82.1783 39.176 82.4946C39.0407 82.4946 38.8379 82.4946 38.6128 82.4314C38.1846 82.3681 37.5763 82.3048 36.9005 82.3048C35.5036 82.3048 34.7826 82.3681 34.0841 82.4946C34.0392 81.989 34.0166 80.4721 34.0841 80.0925C34.4896 79.9032 34.6924 79.7134 34.9403 79.5236C35.391 79.1445 35.5036 78.5756 35.5261 76.9322C35.5261 75.7317 35.6161 65.492 35.481 63.0266C35.3459 60.4984 34.6699 57.528 33.1829 57.528C32.6197 57.528 31.7411 58.1601 30.8849 59.9928C30.84 60.1194 30.7949 60.4352 30.7949 60.625V60.6883C30.8849 62.0153 30.8849 63.5328 30.8849 65.8711V69.9794C30.8849 72.8239 30.8623 75.4786 30.8849 77.5011C30.8849 78.892 31.1779 79.2078 31.4258 79.4609C31.5609 79.5236 31.6509 79.5868 31.7637 79.6501C31.9665 79.7767 32.1692 79.9032 32.4846 80.0925C32.5297 80.3456 32.5297 81.167 32.462 81.8625C32.4395 82.2415 32.3944 82.4314 32.372 82.4946C31.606 82.4314 30.8174 82.3681 29.6684 82.3681C29.3305 82.3681 28.7447 82.4314 28.2489 82.4314C27.8434 82.4314 27.4603 82.4946 27.2352 82.4946C27.2127 82.3681 27.1676 81.9257 27.1676 81.2303C27.1676 80.6614 27.2127 80.219 27.2578 80.0925C27.3703 80.0292 27.4603 79.9665 27.5731 79.9665C27.8434 79.84 28.0687 79.7134 28.294 79.5868C28.677 79.2711 28.8122 78.7021 28.8347 77.3118C28.9024 74.1515 28.9698 65.1129 28.8122 62.8373C28.5419 59.1714 27.7985 57.3381 26.6043 57.3381C25.906 57.3381 25.0272 58.2861 24.3063 59.8036C24.1937 60.0561 24.1035 60.6883 24.1035 61.2572V64.9864C24.1035 69.537 24.1035 75.226 24.126 77.6909C24.1486 78.449 24.2386 79.3343 24.7569 79.6501C24.8695 79.7134 25.0497 79.84 25.2751 79.9032L25.6806 80.0925C25.7257 80.4721 25.7032 81.989 25.613 82.4946C25.3876 82.4946 25.1174 82.4314 24.8018 82.4314C24.3288 82.3681 23.7205 82.3048 23.0447 82.3048C22.2561 82.3048 21.6928 82.3681 21.2422 82.4314C20.9268 82.3048 20.6789 82.3048 20.4087 82.3048Z" fill="#442D22"/>
<path fill-rule="evenodd" clip-rule="evenodd" d="M8.55773 97.4769L7.63404 96.5917C7.63404 96.5917 7.74682 83.3815 6.05711 82.4336C4.93064 78.7676 6.23734 -73.0547 10.2925 81.9279C10.2925 81.9279 8.89584 83.8872 8.64795 87.2373C8.3775 90.5242 8.55773 97.4769 8.55773 97.4769Z" fill="white"/>
<path fill-rule="evenodd" clip-rule="evenodd" d="M8.55773 97.4769L7.63404 96.5917C7.63404 96.5917 7.74682 83.3815 6.05711 82.4336C4.93064 78.7676 6.23734 -73.0547 10.2925 81.9279C10.2925 81.9279 8.89584 83.8872 8.64795 87.2373C8.3775 90.5242 8.55773 97.4769 8.55773 97.4769Z" fill="#A6A385"/>
<path fill-rule="evenodd" clip-rule="evenodd" d="M9.05382 84.7082C9.05382 84.7082 17.1419 69.7913 15.2494 38.7566C13.4246 16.1921 9.12127 8.79701 8.64825 5.9525C8.13012 3.93 7.63434 0.390625 7.63434 0.390625L7.97245 63.1544C7.97245 63.2176 7.27388 82.3693 9.05382 84.7082Z" fill="white"/>
<path fill-rule="evenodd" clip-rule="evenodd" d="M9.05382 84.7082C9.05382 84.7082 17.1419 69.7913 15.2494 38.7566C13.4246 16.1921 9.12127 8.79701 8.64825 5.9525C8.13012 3.93 7.63434 0.390625 7.63434 0.390625L7.97245 63.1544C7.97245 63.2176 7.27388 82.3693 9.05382 84.7082Z" fill="#499D4A"/>
<path fill-rule="evenodd" clip-rule="evenodd" d="M7.16513 85.5288C7.16513 85.5288 -0.42741 70.991 0.023265 45.3928C0.451174 19.794 5.81332 7.21606 6.84957 4.94045C7.52558 2.91795 7.54814 2.15922 7.59325 0.136719C8.06627 2.98123 7.97626 42.6749 8.04371 47.352C8.24649 65.3659 7.68326 82.116 7.16513 85.5288Z" fill="white"/>
<path fill-rule="evenodd" clip-rule="evenodd" d="M7.16513 85.5288C7.16513 85.5288 -0.42741 70.991 0.023265 45.3928C0.451174 19.794 5.81332 7.21606 6.84957 4.94045C7.52558 2.91795 7.54814 2.15922 7.59325 0.136719C8.06627 2.98123 7.97626 42.6749 8.04371 47.352C8.24649 65.3659 7.68326 82.116 7.16513 85.5288Z" fill="#58AA50"/>
</svg>
