<svg width="124" height="128" viewBox="0 0 124 128" fill="none" xmlns="http://www.w3.org/2000/svg">
<path d="M114.142 98.6472C107.401 98.4709 102.176 99.1783 97.7934 101.122C96.5293 101.652 94.5066 101.653 94.3379 103.331C95.0125 104.039 95.0966 105.187 95.6866 106.159C96.6985 107.926 98.4674 110.313 100.069 111.55C101.838 112.964 103.608 114.378 105.462 115.615C108.749 117.736 112.457 118.973 115.659 121.094C117.514 122.33 119.367 123.922 121.221 125.248C122.148 125.954 122.738 127.103 123.918 127.545V127.28C123.328 126.485 123.159 125.336 122.569 124.452C121.727 123.568 120.884 122.773 120.041 121.889C117.597 118.443 114.564 115.438 111.277 112.964C108.581 111.02 102.681 108.369 101.586 105.099C101.586 105.099 101.501 105.011 101.417 104.922C103.271 104.746 105.462 104.039 107.232 103.508C110.097 102.713 112.71 102.889 115.659 102.094C117.007 101.741 118.356 101.299 119.704 100.857V100.062C118.188 98.4709 117.092 96.3503 115.49 94.8479C111.193 90.9588 106.473 87.1595 101.586 83.9784C98.9729 82.2109 95.602 81.0617 92.8212 79.5598C91.8103 79.0287 90.1244 78.7642 89.5349 77.8805C88.0176 75.9363 87.1748 73.3738 86.0794 71.0758C83.6364 66.2149 81.2758 60.825 79.1691 55.6996C77.6528 52.2529 76.7255 48.8062 74.8714 45.6252C66.1916 30.6021 56.753 21.5 42.2582 12.5742C39.14 10.7186 35.4324 9.92307 31.4715 8.95122C29.3653 8.86251 27.2579 8.68622 25.1511 8.59751C23.803 7.9788 22.4543 6.30009 21.2743 5.50453C16.4718 2.32284 4.08319 -4.56943 0.543686 4.53267C-1.73176 10.2768 3.91455 15.9322 5.85267 18.8489C7.28593 20.8813 9.13948 23.1787 10.1509 25.4767C10.7409 26.978 10.909 28.5697 11.499 30.1602C12.8477 34.0477 14.1112 38.3786 15.8812 42.0022C16.8085 43.8578 17.8194 45.802 18.9994 47.4807C19.6734 48.4526 20.8529 48.895 21.1062 50.4855C19.9267 52.253 19.8421 54.9041 19.1675 57.1134C16.1339 67.0992 17.3139 79.4711 21.6116 86.8058C22.9597 89.0145 26.1625 93.876 30.4601 92.0199C34.2524 90.4293 33.4096 85.3921 34.5051 80.9735C34.7583 79.9124 34.5896 79.2061 35.0951 78.4992C35.0955 78.5874 35.0951 78.6761 35.0951 78.6761C36.2751 81.1504 37.4546 83.5365 38.55 86.0107C41.1627 90.3406 45.7131 94.8478 49.5053 97.8527C51.5286 99.4427 53.1294 102.183 55.6576 103.155V102.889H55.4889C54.9829 102.094 54.2248 101.741 53.5508 101.122C52.034 99.5314 50.348 97.5871 49.1685 95.8197C45.6295 90.8706 42.5108 85.3921 39.73 79.7361C38.3819 76.9968 37.2019 73.992 36.1064 71.2527C35.6005 70.1916 35.6005 68.6016 34.7578 68.0716C33.4937 70.0153 31.6401 71.6946 30.7128 74.0807C29.1125 77.8806 28.9433 82.5641 28.3533 87.4245C28.0166 87.5132 28.1847 87.4245 28.016 87.6013C25.3198 86.8939 24.3925 83.9784 23.3811 81.5035C20.8529 75.2294 20.4316 65.1549 22.6229 57.9089C23.213 56.0528 25.7411 50.2206 24.7297 48.4531C24.2243 46.7739 22.5383 45.802 21.6116 44.4764C20.5161 42.7972 19.3361 40.6766 18.578 38.8205C16.5553 33.8719 15.5439 28.3928 13.3531 23.4437C12.3417 21.1457 10.5722 18.7602 9.13948 16.6396C7.53865 14.2535 5.76862 12.5742 4.50452 9.74621C4.0837 8.77435 3.49316 7.18379 4.16722 6.12322C4.33588 5.41637 4.67264 5.15137 5.34724 4.97451C6.44267 4.0021 9.56083 5.23951 10.6562 5.76952C13.7744 7.09451 16.3866 8.3325 18.9993 10.1881C20.1788 11.0718 21.4429 12.751 22.9597 13.1929H24.7297C27.4265 13.811 30.4601 13.3697 32.9882 14.1648C37.455 15.6666 41.4994 17.8764 45.1236 20.2626C56.1635 27.5972 65.2642 38.0255 71.4165 50.4856C72.4278 52.5174 72.8487 54.3741 73.776 56.4947C75.546 60.8251 77.7368 65.2436 79.5063 69.4853C81.2758 73.6383 82.9613 77.8806 85.4894 81.3273C86.754 83.1823 91.8098 84.1547 94.0852 85.1271C95.7706 85.9221 98.3834 86.6295 99.9002 87.6014C102.765 89.4564 105.631 91.5781 108.327 93.6105C109.676 94.6705 113.889 96.8803 114.142 98.6472L114.142 98.6472Z" fill="#00546B"/>
<path d="M28.1841 21.8525C26.7514 21.8525 25.7405 22.03 24.7292 22.295C24.7292 22.2945 24.7292 22.3837 24.7292 22.4718H24.8978C25.5724 23.8855 26.7514 24.8579 27.5941 26.0948C28.2687 27.5085 28.8581 28.9228 29.5328 30.3371C29.6168 30.2483 29.7009 30.1602 29.7009 30.1602C30.8814 29.2759 31.4709 27.8622 31.4709 25.7416C30.9649 25.1229 30.8809 24.5042 30.4595 23.8855C29.9541 23.0012 28.8581 22.56 28.1841 21.8525Z" fill="#00546B"/>
</svg>
