<svg width="100" height="100" viewBox="0 0 100 100" fill="none" xmlns="http://www.w3.org/2000/svg">
<path d="M58.8811 0C58.158 0 57.4866 0.155563 56.8668 0.36297C58.1839 1.24447 58.907 2.41116 59.2685 3.73341C59.2944 3.91489 59.346 4.04453 59.3719 4.226C59.3978 4.38157 59.4235 4.53713 59.4235 4.69269C59.5268 6.97421 58.8295 7.2594 58.3388 8.60757C57.5899 10.3447 57.7965 12.2114 58.7004 13.7151C58.7779 13.8966 58.8811 14.104 59.0103 14.2855C58.0289 7.72608 63.478 6.74087 64.4852 4.69269C64.5627 2.90376 63.0906 1.71114 61.9285 0.881497C60.818 0.207412 59.8108 0 58.8811 0ZM67.0935 1.47781C66.9902 2.07411 67.0677 1.91856 67.0419 2.22968C67.0161 2.43708 67.0161 2.69635 66.9903 2.90376C66.9387 3.11117 66.887 3.31858 66.8095 3.526C66.7579 3.73341 66.6804 3.94082 66.603 4.14823C66.4996 4.35565 66.4222 4.53713 66.3189 4.74454C66.2414 4.84829 66.1898 4.95194 66.1123 5.05566C66.0607 5.13344 66.0089 5.21121 65.9573 5.28899C65.8282 5.47049 65.6991 5.65196 65.5699 5.80752C65.415 5.96308 65.2859 6.14456 65.1051 6.2742C65.1051 6.30016 65.1051 6.30016 65.1051 6.30016C64.9501 6.4298 64.7952 6.58535 64.6144 6.71498C64.0721 7.1298 63.4523 7.44092 62.8841 7.82982C62.7034 7.95945 62.5226 8.06316 62.3676 8.21872C62.1869 8.34835 62.0319 8.47797 61.877 8.63354C61.6962 8.78909 61.567 8.94466 61.4121 9.12614C61.283 9.28171 61.128 9.46318 61.0247 9.64468C60.8956 9.82615 60.7665 10.0076 60.6632 10.1891C60.5598 10.3965 60.4824 10.578 60.3791 10.7854C60.3016 10.9928 60.2241 11.1743 60.1725 11.3817C60.095 11.6151 60.0434 11.8225 59.9917 12.0299C59.9659 12.1337 59.9659 12.2632 59.9401 12.3669C59.9142 12.4707 59.9142 12.5744 59.8885 12.6781C59.8885 12.8855 59.8626 13.1188 59.8626 13.3262C59.8626 13.4818 59.8626 13.6373 59.8885 13.7929C59.8885 14.0003 59.9143 14.2077 59.966 14.4411C59.9918 14.6485 60.0434 14.8559 60.0951 15.0633C60.1726 15.2707 60.2242 15.4781 60.3017 15.6855C60.3533 15.8152 60.4308 15.9448 60.4825 16.0485L54.5427 13.741C53.5355 13.4558 52.5542 13.1966 51.547 12.9633C51.0046 12.8336 50.4623 12.704 49.92 12.5744C48.3705 12.2632 46.7952 12.0299 45.2198 11.8743C45.1682 11.8743 45.1423 11.8484 45.0907 11.8484C43.5412 11.6928 42.0175 11.6151 40.468 11.6151C39.3317 11.6151 38.1954 11.6669 37.0849 11.7447C35.5095 11.8484 33.9342 12.0558 32.3589 12.3151C31.9715 12.3669 31.5841 12.4447 31.1967 12.5225C30.3962 12.678 29.6214 12.8595 28.8725 13.041C28.4851 13.1448 28.0977 13.2484 27.7103 13.3521C27.323 13.5077 26.9614 13.6892 26.5999 13.8447C26.3158 13.9743 26.0317 14.104 25.7476 14.2336C25.696 14.2596 25.6443 14.2596 25.6185 14.2854C25.3603 14.4151 25.1278 14.5188 24.8954 14.6484C24.8179 14.6744 24.7663 14.7002 24.7146 14.7262C24.4306 14.8558 24.1465 15.0114 23.9141 15.141C23.7333 15.2188 23.5525 15.3225 23.3976 15.4003C23.3201 15.4521 23.2168 15.504 23.1651 15.5299C22.9327 15.6595 22.7003 15.7892 22.4937 15.9188C22.2612 16.0484 22.0546 16.1781 21.8739 16.3077C21.6931 16.4373 21.5123 16.541 21.3574 16.6707C21.3315 16.6966 21.3057 16.6966 21.2799 16.7225C21.1249 16.8262 20.9442 16.9558 20.7892 17.0854C20.7892 17.0854 20.7633 17.1114 20.7376 17.1373C20.6085 17.241 20.4793 17.3447 20.3502 17.4484C20.2986 17.4743 20.2469 17.5261 20.1953 17.5521C20.0661 17.6559 19.937 17.7855 19.8079 17.8892C19.782 17.941 19.7304 17.9669 19.7046 17.9929C19.5496 18.1485 19.3947 18.2781 19.2397 18.4337C19.2138 18.4337 19.2138 18.4596 19.1881 18.4855C19.0331 18.6151 18.8782 18.7707 18.7232 18.9262C18.6974 18.9522 18.6974 18.978 18.6716 18.978C18.5425 19.1077 18.4134 19.2373 18.2842 19.3929C18.2326 19.4447 18.1551 19.4966 18.1035 19.5484C17.9744 19.704 17.8194 19.8595 17.6644 20.0151C17.6386 20.0669 17.587 20.0929 17.5611 20.1447C17.3545 20.3521 17.1737 20.5595 16.9671 20.767C16.9413 20.7929 16.9155 20.8188 16.8897 20.8447C16.4764 21.2855 16.0374 21.7262 15.5726 22.1151C15.1077 22.5299 14.617 22.9188 14.1264 23.2559C13.6099 23.6189 13.1192 23.93 12.5768 24.2411C12.0603 24.5263 11.518 24.7855 10.9499 25.0189C10.4075 25.2522 9.83938 25.4596 9.27123 25.6411C8.18657 25.8745 7.07609 26.3152 6.12056 26.393C5.91396 26.393 5.68153 26.4448 5.47493 26.4708C5.2425 26.5226 5.0359 26.5745 4.82931 26.6263C4.62271 26.7041 4.4161 26.7819 4.2095 26.8597C4.0029 26.9374 3.7963 27.0412 3.5897 27.1449C3.40892 27.2745 3.20232 27.3782 3.02154 27.5078C2.84077 27.6375 2.65999 27.793 2.50504 27.9486C2.32427 28.0782 2.14349 28.2597 1.98853 28.4152C1.83358 28.5967 1.67863 28.7523 1.54951 28.9338C1.42038 29.1412 1.26543 29.3227 1.16213 29.5301C1.033 29.7116 0.903881 29.919 0.800576 30.1264C0.697234 30.3597 0.593977 30.5671 0.516501 30.8005C0.439025 31.0079 0.361549 31.2412 0.284073 31.4746C0.232463 31.682 0.180732 31.8894 0.154951 32.0968C0.154951 32.1228 0.129086 32.1486 0.129086 32.1746C0.0774755 32.4079 0.0774755 32.719 0.0516096 32.8746C0.0257447 33.0561 0 33.2116 0 33.3931C0 33.4969 0 33.6265 0.0258649 33.7302C0.0517298 33.9117 0.0774744 34.0672 0.129207 34.2228C0.180817 34.3783 0.232549 34.5339 0.309976 34.6895C0.309976 34.7154 0.309976 34.7154 0.309976 34.7154C0.387452 34.871 0.490757 35.0265 0.594051 35.1821C0.697393 35.3377 0.800662 35.4932 0.929784 35.6488C1.05891 35.7784 1.21386 35.934 1.36881 36.0636C1.52376 36.2192 1.67872 36.3488 1.85948 36.4784C2.47929 37.0229 2.63424 37.2044 3.43482 37.6192C3.56394 37.697 3.69308 37.7488 3.84803 37.8266C3.8739 37.8266 3.89964 37.8526 3.92551 37.8526C3.92551 37.9044 3.92551 37.9303 3.95138 37.9822C3.97724 38.1896 4.02885 38.397 4.0805 38.6044C4.13211 38.8378 4.20963 39.0452 4.28711 39.2267C4.36459 39.3822 4.41623 39.5378 4.49371 39.6933C4.51958 39.7452 4.54532 39.7971 4.57119 39.823C4.67453 40.0304 4.77778 40.2119 4.88108 40.3934C5.01021 40.5748 5.13933 40.7563 5.26846 40.9378C5.39758 41.0934 5.55253 41.2748 5.70748 41.4304C5.86244 41.586 6.01739 41.7156 6.19817 41.8712C6.19817 41.8712 6.22404 41.8972 6.24978 41.8972C6.40473 42.0268 6.55968 42.1564 6.71464 42.2601C6.89541 42.3897 7.07619 42.4935 7.28278 42.5972C7.46357 42.7009 7.67017 42.8046 7.87676 42.8824C8.03172 42.9601 8.21249 43.012 8.39327 43.0638C8.41914 43.0898 8.44488 43.0898 8.49661 43.1157C8.59995 43.1417 8.72902 43.1675 8.83233 43.1934C8.75486 44.5935 8.72899 45.9157 8.93567 46.3824C9.16809 46.9009 10.3044 45.3194 11.4407 43.5046C11.2858 45.2935 11.1825 47.3935 11.4407 48.0158C11.7248 48.6639 13.2743 46.6416 14.6172 44.412C32.9272 40.1601 49.6361 52.864 51.3922 70.8051C51.0565 68.005 47.6217 66.4494 46.0464 66.8383C45.2717 68.7569 43.9546 71.2199 41.8369 72.7496C42.0177 71.0384 41.9403 69.2754 41.5787 67.5643C41.0105 69.9495 39.9 72.1792 38.3763 74.0977C35.923 74.2792 33.4696 73.0866 32.1783 71.2977C32.075 71.2199 32.0492 71.0643 31.9717 70.9606C31.8942 70.7791 31.8167 70.5977 31.7651 70.4162C31.6876 70.2347 31.636 70.0532 31.6101 69.8717C31.5843 69.6902 31.5843 69.5088 31.5843 69.3014C31.5843 69.1717 31.5843 69.0421 31.5843 68.9125C31.6101 68.731 31.6618 68.5495 31.7134 68.368C31.765 68.1865 31.8167 68.005 31.8942 67.8235C31.9975 67.6421 32.075 67.4606 32.2041 67.2791C32.6431 66.0346 32.6431 65.0235 31.8425 64.4272C31.6876 64.3234 31.5326 64.2457 31.3518 64.1679C31.2485 64.1419 31.1194 64.0901 31.0161 64.0642C30.9387 64.0382 30.887 64.0123 30.8095 63.9864C30.6287 63.9346 30.448 63.8826 30.2672 63.8568C30.0864 63.8049 29.9056 63.779 29.7249 63.779C29.5441 63.753 29.3375 63.7272 29.1567 63.7272C29.0276 63.7272 28.8985 63.7531 28.7693 63.7531C28.5627 63.7531 28.382 63.7791 28.2012 63.8309C28.0204 63.8569 27.8396 63.8827 27.6589 63.9346C27.4781 63.9865 27.2973 64.0384 27.1165 64.1161C26.9358 64.1939 26.7808 64.2717 26.6 64.3495C26.4451 64.4273 26.2901 64.531 26.1093 64.6087C20.0921 68.5496 23.6818 77.7794 27.788 80.4498C26.2385 80.735 24.6631 81.072 24.2241 81.4091C24.1982 81.435 24.1725 81.4609 24.1725 81.4609C25.283 82.1349 26.4451 82.7053 27.6589 83.1979C29.3117 83.7424 31.0678 84.235 31.8426 84.4424V84.4684C33.9861 84.9091 36.1554 85.0647 38.3505 84.9351C49.7911 84.1313 59.1656 75.3941 60.8701 63.8828C60.9217 64.1161 60.9734 64.3235 61.025 64.5569C61.1025 65.0235 61.2058 65.5162 61.2574 66.0088C61.2574 66.0088 61.2574 66.0088 61.2574 66.0348C61.309 66.2681 61.3349 66.5014 61.3608 66.7088C61.3608 66.7606 61.3608 66.7866 61.3608 66.8126C61.3867 67.0459 61.4124 67.2793 61.4124 67.4867C61.4382 67.7719 61.464 68.057 61.464 68.3422C61.464 68.4719 61.464 68.6015 61.464 68.7571C61.464 68.8867 61.4898 69.0423 61.4898 69.1719C61.4898 69.3275 61.464 69.483 61.464 69.6386C61.464 69.7682 61.464 69.8978 61.464 70.0015C61.464 70.183 61.4381 70.3386 61.4381 70.5201C61.4381 70.6238 61.4381 70.7275 61.4122 70.8571C61.4122 71.0386 61.3864 71.2201 61.3864 71.4275C61.3605 71.5053 61.3605 71.583 61.3605 71.6608C61.3346 71.8682 61.3089 72.0497 61.283 72.2571C61.283 72.3349 61.283 72.4127 61.2571 72.4905C61.2312 72.7497 61.1797 72.9831 61.1538 73.2423V73.2683V73.2943C61.1022 73.5276 61.0505 73.7869 60.9988 74.0202C60.9988 74.0462 60.9988 74.072 60.9988 74.098C60.9472 74.3313 60.8955 74.5647 60.8439 74.798C60.8439 74.824 60.818 74.8758 60.818 74.9018C60.7664 75.1351 60.7147 75.3684 60.6373 75.6018C60.6373 75.6277 60.6373 75.6536 60.6373 75.6796C60.5598 75.9388 60.4823 76.1722 60.4307 76.4055C60.4048 76.4315 60.4048 76.4573 60.4048 76.4573C60.3273 76.7166 60.2499 76.9758 60.1724 77.2351C60.069 77.4944 59.9916 77.7277 59.8883 77.987C59.785 78.2462 59.7075 78.5055 59.6042 78.7388C59.5009 78.9981 59.3976 79.2315 59.2943 79.4907H59.2684C59.1651 79.724 59.0618 79.9833 58.9327 80.2167C58.9068 80.2944 58.8811 80.3463 58.8552 80.3981C58.8294 80.4241 58.8294 80.4499 58.8036 80.4759C57.125 83.8723 54.6458 86.8538 51.5468 89.1872C51.3402 89.3168 51.1335 89.4724 50.927 89.6279C50.8753 89.6797 50.7978 89.7057 50.7462 89.7576C50.5654 89.8872 50.3846 90.0168 50.178 90.1465L50.2555 90.302H50.2814C50.6429 90.2502 51.0045 90.1983 51.366 90.1465H51.3919C52.0633 90.0427 52.7348 89.9131 53.4062 89.7835C53.587 89.7575 53.7936 89.7057 53.9744 89.6539C54.1035 89.6279 54.2068 89.6021 54.3359 89.5761C54.5167 89.5501 54.6975 89.4983 54.8783 89.4723C55.0332 89.4205 55.1882 89.3945 55.3431 89.3427C57.9256 88.7205 60.4307 87.8649 62.8324 86.8538C58.7262 92.4798 53.2255 97.0169 46.795 99.9985C49.7649 99.791 52.7348 99.2984 55.6014 98.4688C66.0089 95.3835 74.7636 88.3575 80.0061 78.8943C78.9473 84.8834 76.5714 90.5872 73.0592 95.565C75.5642 93.9057 77.8626 91.9872 79.9545 89.8094C85.7393 83.7426 89.5356 76.0424 90.8269 67.7719C91.7049 71.8683 91.9632 76.0943 91.5758 80.2684C110.222 54.1605 93.1253 27.0933 85.9718 19.9636C85.9459 19.9118 85.9201 19.8858 85.9201 19.8339C85.8942 19.8599 85.8942 19.8599 85.8942 19.8858C85.8942 19.8598 85.8942 19.8598 85.8684 19.8339C85.8684 20.1451 85.8425 20.4562 85.8168 20.7673C85.7393 21.3636 85.6618 21.934 85.5585 22.5044C85.4294 23.0747 85.2744 23.6451 85.1195 24.2155C84.9387 24.76 84.7321 25.3303 84.4997 25.8748C84.2673 26.3933 84.009 26.9378 83.7249 27.4563C83.4409 27.9489 83.131 28.4674 82.7952 28.9341C82.4595 29.4267 82.098 29.8934 81.7364 30.3341C81.349 30.8008 80.9358 31.2156 80.5226 31.6305C80.2644 31.8638 80.0319 32.0712 79.7737 32.2786C79.5671 32.4601 79.3863 32.6157 79.1797 32.7971C78.7149 33.1601 78.25 33.4972 77.7335 33.8083C77.2428 34.1194 76.7263 34.4305 76.2098 34.6898C75.6675 34.949 75.1252 35.1824 74.5828 35.4157C74.0405 35.6231 73.4724 35.8046 72.9042 35.9602C72.336 36.1157 71.7421 36.2454 71.1739 36.3491C70.5799 36.4528 69.986 36.5046 69.4178 36.5565C69.0046 36.5824 68.5914 36.6083 68.1782 36.6083C67.5842 36.6083 66.9902 36.5565 66.4221 36.5046C65.8281 36.4527 65.2341 36.3749 64.666 36.2453C64.072 36.1415 63.5038 35.986 62.9357 35.8045H62.9098C63.478 35.7527 64.0461 35.7008 64.6143 35.5971C65.2083 35.4934 65.7764 35.3638 66.3446 35.2082C66.9127 35.0527 67.4809 34.8712 68.0232 34.6638C68.5914 34.4564 69.1337 34.1971 69.6502 33.9378C70.1925 33.6786 70.6832 33.3934 71.1997 33.0823C71.6904 32.7452 72.1811 32.4082 72.6459 32.0452C73.1108 31.6822 73.5498 31.2933 73.963 30.8785C74.402 30.4896 74.7894 30.0489 75.1768 29.6081C75.5641 29.1415 75.9257 28.6748 76.2614 28.2081C76.313 28.1303 76.3648 28.0266 76.4164 27.9488C76.6746 27.534 76.9329 27.1192 77.1653 26.7044C77.4494 26.1858 77.7076 25.6673 77.9401 25.1229C78.1725 24.5784 78.3791 24.0339 78.5599 23.4636C78.7406 22.9191 78.8698 22.3487 78.9989 21.7783C79.1022 21.182 79.2055 20.6116 79.2572 20.0413C79.3088 19.445 79.3605 18.8487 79.3605 18.2783C79.3605 17.8634 79.3346 17.4486 79.3089 17.0338C79.2573 16.4375 79.1798 15.8671 79.1023 15.2967C78.9989 14.7004 78.8699 14.1301 78.7149 13.5597C78.5341 13.0152 78.3533 12.4448 78.1468 11.9004C77.9401 11.3559 77.6819 10.8115 77.4236 10.2929C77.1396 9.7744 76.8555 9.25588 76.5456 8.76328C76.2099 8.27068 75.8741 7.804 75.5126 7.33732C75.1252 6.89657 74.7378 6.45582 74.3246 6.01508C74.118 5.80767 73.8856 5.57433 73.6532 5.36692C72.491 4.45949 71.2773 3.60391 70.0635 2.82613C69.8827 2.72238 69.7278 2.64464 69.547 2.56685C68.6947 2.02241 67.8942 1.73721 67.0936 1.47795L67.0935 1.47781Z" fill="#E0234E"/>
</svg>
