<svg width="125" height="100" viewBox="0 0 125 100" fill="none" xmlns="http://www.w3.org/2000/svg">
<path d="M61.7944 99.7134C61.3712 99.7134 60.9761 99.5662 60.6093 99.3086L56.8565 96.4008C56.2922 95.9959 56.5744 95.8486 56.7437 95.775C57.5055 95.4438 57.6466 95.3701 58.4367 94.7812C58.5213 94.7076 58.6342 94.7444 58.7188 94.818L61.5969 97.0633C61.7098 97.1369 61.8509 97.1369 61.9355 97.0633L73.1939 88.5608C73.3067 88.4871 73.3632 88.3399 73.3632 88.1559V71.1876C73.3632 71.0036 73.3067 70.8563 73.1939 70.7827L61.9355 62.317C61.8226 62.2434 61.6816 62.2434 61.5969 62.317L50.3385 70.7827C50.2257 70.8563 50.1692 71.0404 50.1692 71.1876V88.1559C50.1692 88.3031 50.2257 88.4871 50.3385 88.5608L53.4141 90.8796C55.0789 91.9839 56.1229 90.6956 56.1229 89.4073V72.6599C56.1229 72.4391 56.264 72.2182 56.4615 72.2182H57.9006C58.0698 72.2182 58.2391 72.4022 58.2391 72.6599V89.4073C58.2391 92.3151 57.0258 94.0083 54.9096 94.0083C54.2606 94.0083 53.7527 94.0083 52.3137 93.0881L49.351 90.8796C48.6173 90.3275 48.1659 89.2969 48.1659 88.1927V71.2244C48.1659 70.1202 48.6173 69.0896 49.351 68.5375L60.6093 60.0349C61.3147 59.5196 62.2741 59.5196 62.9795 60.0349L74.2379 68.5375C74.9715 69.0896 75.423 70.1202 75.423 71.2244V88.1927C75.423 89.2969 74.9715 90.3275 74.2379 90.8796L62.9795 99.3822C62.6127 99.603 62.1895 99.7134 61.7944 99.7134ZM65.2651 88.0454C60.3272 88.0454 59.3114 85.1008 59.3114 82.5979C59.3114 82.3771 59.4525 82.1562 59.65 82.1562H61.1172C61.2865 82.1562 61.4276 82.3035 61.4276 82.5243C61.6533 84.4751 62.3023 85.4321 65.2933 85.4321C67.6635 85.4321 68.6792 84.7328 68.6792 83.0764C68.6792 82.1194 68.3971 81.4201 64.7007 80.9416C61.6251 80.5367 59.7064 79.6533 59.7064 76.4511C59.7064 73.4697 61.6251 71.7029 64.8418 71.7029C68.4535 71.7029 70.2311 73.3224 70.4569 76.856C70.4569 76.9664 70.4287 77.0768 70.3722 77.1872C70.3158 77.2608 70.2311 77.3345 70.1465 77.3345H68.6792C68.5382 77.3345 68.3971 77.1872 68.3689 77.0032C68.0303 74.9788 67.1556 74.3162 64.8418 74.3162C62.2459 74.3162 61.9355 75.4941 61.9355 76.3775C61.9355 77.4449 62.3023 77.7761 65.8012 78.3651C69.2718 78.954 70.9083 79.8006 70.9083 82.966C70.8801 86.2051 68.8485 88.0454 65.2651 88.0454Z" fill="#539E43"/>
<path d="M26.851 33.3485C26.851 32.6859 26.5688 32.0602 26.1173 31.7289L14.1535 22.7479C13.9559 22.6007 13.7302 22.527 13.5045 22.4902H13.3916C13.1659 22.4902 12.9401 22.6007 12.7426 22.7479L0.778739 31.7289C0.327272 32.0602 0.045105 32.6859 0.045105 33.3485L0.0733217 57.4943C0.0733217 57.8255 0.214405 58.1568 0.440139 58.304C0.665872 58.4881 0.948039 58.4881 1.14556 58.304L8.25616 53.0037C8.70763 52.6725 8.9898 52.0467 8.9898 51.3842V40.0843C8.9898 39.4217 9.27196 38.796 9.72343 38.4647L12.7426 36.1827C12.9683 35.9986 13.2223 35.925 13.4762 35.925C13.7302 35.925 13.9841 35.9986 14.1817 36.1827L17.2009 38.4647C17.6523 38.796 17.9345 39.4217 17.9345 40.0843V51.3842C17.9345 52.0467 18.2167 52.6725 18.6681 53.0037L25.7787 58.304C26.0045 58.4881 26.2866 58.4881 26.5124 58.304C26.7381 58.1568 26.8792 57.8255 26.8792 57.4943L26.851 33.3485Z" fill="#333333"/>
<path d="M84.3684 0.110423C84.1426 -0.0368075 83.8605 -0.0368075 83.6629 0.110423C83.4372 0.29446 83.2961 0.58892 83.2961 0.920188V24.8451C83.2961 25.0659 83.2115 25.2868 83.0422 25.434C82.8729 25.5444 82.7036 25.5444 82.5343 25.434L79.5433 23.1887C79.0918 22.8575 78.5557 22.8575 78.1043 23.1887L66.1404 32.2066C65.6889 32.5378 65.4067 33.1636 65.4067 33.8261V51.825C65.4067 52.4875 65.6889 53.1133 66.1404 53.4445L78.1043 62.4624C78.5557 62.7936 79.0918 62.7936 79.5433 62.4624L91.5072 53.4445C91.9586 53.1133 92.2408 52.4875 92.2408 51.825V6.95662C92.2408 6.25728 91.9586 5.63155 91.5072 5.30028L84.3684 0.110423ZM83.2679 45.899C83.2679 46.083 83.2115 46.2303 83.0986 46.3039L79.0072 49.3957C78.8943 49.4693 78.7532 49.4693 78.6404 49.3957L74.5489 46.3039C74.4361 46.2303 74.3796 46.0462 74.3796 45.899V39.7153C74.3796 39.5313 74.4361 39.384 74.5489 39.3104L78.6404 36.2186C78.7532 36.145 78.8943 36.145 79.0072 36.2186L83.0986 39.3104C83.2115 39.384 83.2679 39.5681 83.2679 39.7153V45.899Z" fill="#333333"/>
<path d="M124.182 39.5684C124.633 39.2371 124.887 38.6114 124.887 37.9489V33.5688C124.887 32.9062 124.605 32.2805 124.182 31.9492L112.302 22.9682C111.851 22.6369 111.315 22.6369 110.863 22.9682L98.8995 31.986C98.448 32.3173 98.1658 32.943 98.1658 33.6056V51.6045C98.1658 52.267 98.448 52.8927 98.8995 53.224L110.779 62.0578C111.23 62.3891 111.766 62.3891 112.19 62.0578L119.385 56.8312C119.611 56.6839 119.752 56.3527 119.752 56.0214C119.752 55.6901 119.611 55.3589 119.385 55.2116L107.364 46.1938C107.139 46.0097 106.998 45.7153 106.998 45.384V39.7524C106.998 39.4212 107.139 39.0899 107.364 38.9427L111.117 36.1453C111.343 35.9613 111.625 35.9613 111.851 36.1453L115.604 38.9427C115.83 39.1267 115.971 39.4212 115.971 39.7524V44.1693C115.971 44.5006 116.112 44.8319 116.337 44.9791C116.563 45.1632 116.845 45.1632 117.071 44.9791L124.182 39.5684Z" fill="#333333"/>
<path d="M111.4 38.7222C111.485 38.6486 111.598 38.6486 111.682 38.7222L113.968 40.4522C114.053 40.5258 114.109 40.6362 114.109 40.7835V44.2434C114.109 44.3907 114.053 44.5011 113.968 44.5747L111.682 46.3047C111.598 46.3783 111.485 46.3783 111.4 46.3047L109.115 44.5747C109.03 44.5011 108.974 44.3907 108.974 44.2434V40.7835C108.974 40.6362 109.03 40.5258 109.115 40.4522L111.4 38.7222Z" fill="#539E43"/>
<mask id="mask0" mask-type="alpha" maskUnits="userSpaceOnUse" x="32" y="22" width="28" height="41">
<path d="M46.8682 23.0414C46.4167 22.7102 45.8806 22.7102 45.4291 23.0414L33.5499 31.9856C33.0984 32.3169 32.8445 32.9426 32.8445 33.6052V51.5304C32.8445 52.193 33.1266 52.8187 33.5499 53.15L45.4291 62.0942C45.8806 62.4255 46.4167 62.4255 46.8682 62.0942L58.7474 53.15C59.1989 52.8187 59.4528 52.193 59.4528 51.5304V33.6052C59.4528 32.9426 59.1707 32.3169 58.7474 31.9856L46.8682 23.0414Z" fill="white"/>
</mask>
<g mask="url(#mask0)">
<path d="M46.8682 23.0414C46.4167 22.7102 45.8806 22.7102 45.4291 23.0414L33.5499 31.9856C33.0984 32.3169 32.8445 32.9426 32.8445 33.6052V51.5304C32.8445 52.193 33.1266 52.8187 33.5499 53.15L45.4291 62.0942C45.8806 62.4255 46.4167 62.4255 46.8682 62.0942L58.7474 53.15C59.1989 52.8187 59.4528 52.193 59.4528 51.5304V33.6052C59.4528 32.9426 59.1707 32.3169 58.7474 31.9856L46.8682 23.0414Z" fill="url(#paint0_linear)"/>
<path d="M58.778 31.9847L46.8423 23.0405C46.7294 22.9669 46.5884 22.8933 46.4755 22.8564L33.1008 52.744C33.2136 52.9281 33.3547 53.0753 33.4958 53.1857L45.4315 62.1299C45.7701 62.3876 46.1651 62.4612 46.5319 62.314L59.0884 32.3527C59.0037 32.2055 58.8909 32.0951 58.778 31.9847Z" fill="url(#paint1_linear)"/>
<path fill-rule="evenodd" clip-rule="evenodd" d="M58.8034 53.146C59.142 52.8884 59.396 52.4467 59.5088 51.9682L46.4163 22.8167C46.0777 22.7431 45.7109 22.7799 45.4005 23.0375L33.5495 31.9449L46.3316 62.3479C46.5009 62.3111 46.6985 62.2375 46.8678 62.1271L58.8034 53.146Z" fill="url(#paint2_linear)"/>
<path fill-rule="evenodd" clip-rule="evenodd" d="M58.8058 53.1482L46.8983 62.0924C46.729 62.2028 46.5597 62.2764 46.3622 62.3132L46.5879 62.8654L59.7934 52.8906V52.6697L59.4548 51.9336C59.3983 52.4489 59.1444 52.8906 58.8058 53.1482Z" fill="url(#paint3_linear)"/>
<path fill-rule="evenodd" clip-rule="evenodd" d="M58.8058 53.1482L46.8983 62.0924C46.729 62.2028 46.5597 62.2764 46.3622 62.3132L46.5879 62.8654L59.7934 52.8906V52.6697L59.4548 51.9336C59.3983 52.4489 59.1444 52.8906 58.8058 53.1482Z" fill="url(#paint4_linear)"/>
</g>
<defs>
<linearGradient id="paint0_linear" x1="50.9883" y1="29.709" x2="32.5588" y2="51.9075" gradientUnits="userSpaceOnUse">
<stop stop-color="#41873F"/>
<stop offset="0.3288" stop-color="#418B3D"/>
<stop offset="0.6352" stop-color="#419637"/>
<stop offset="0.9319" stop-color="#3FA92D"/>
<stop offset="1" stop-color="#3FAE2A"/>
</linearGradient>
<linearGradient id="paint1_linear" x1="44.3473" y1="44.6661" x2="80.3391" y2="29.6757" gradientUnits="userSpaceOnUse">
<stop offset="0.1376" stop-color="#41873F"/>
<stop offset="0.4032" stop-color="#54A044"/>
<stop offset="0.7136" stop-color="#66B848"/>
<stop offset="0.9081" stop-color="#6CC04A"/>
</linearGradient>
<linearGradient id="paint2_linear" x1="32.4102" y1="42.5644" x2="59.898" y2="42.5644" gradientUnits="userSpaceOnUse">
<stop offset="0.0919165" stop-color="#6CC04A"/>
<stop offset="0.2864" stop-color="#66B848"/>
<stop offset="0.5968" stop-color="#54A044"/>
<stop offset="0.8624" stop-color="#41873F"/>
</linearGradient>
<linearGradient id="paint3_linear" x1="32.4125" y1="57.4296" x2="59.9004" y2="57.4296" gradientUnits="userSpaceOnUse">
<stop offset="0.0919165" stop-color="#6CC04A"/>
<stop offset="0.2864" stop-color="#66B848"/>
<stop offset="0.5968" stop-color="#54A044"/>
<stop offset="0.8624" stop-color="#41873F"/>
</linearGradient>
<linearGradient id="paint4_linear" x1="63.905" y1="28.86" x2="52.3407" y2="75.314" gradientUnits="userSpaceOnUse">
<stop stop-color="#41873F"/>
<stop offset="0.3288" stop-color="#418B3D"/>
<stop offset="0.6352" stop-color="#419637"/>
<stop offset="0.9319" stop-color="#3FA92D"/>
<stop offset="1" stop-color="#3FAE2A"/>
</linearGradient>
</defs>
</svg>
