<svg width="125" height="125" viewBox="0 0 125 125" fill="none" xmlns="http://www.w3.org/2000/svg">
<path fill-rule="evenodd" clip-rule="evenodd" d="M38.033 120.167C37.9402 119.947 37.8576 119.72 37.7857 119.486C37.2864 117.938 37.1327 116.229 37.3431 114.567H7.80932L51.7 11.0432L66.109 44.9928L70.2872 35.0835L57.7265 5.42565C57.3751 4.5708 55.2534 0 51.5959 0C49.9428 0 47.5739 0.95952 45.6475 5.49543L1.18407 110.275C0.806599 111.182 -1.02869 115.945 0.793582 120.167C1.62662 122.086 3.39683 124.371 7.30169 124.371H44.5411C40.6623 124.371 38.866 122.121 38.033 120.167Z" fill="#01C58E"/>
<path fill-rule="evenodd" clip-rule="evenodd" d="M123.654 110.275L87.117 24.0057C86.7396 23.0985 84.6309 18.5103 80.9604 18.5103C79.3073 18.5103 76.9383 19.4523 75.0119 23.9882L70.2871 35.0838L74.4913 44.993L80.9994 29.5535L117.145 114.567H103.4C103.576 115.972 103.478 117.415 103.114 118.754C103.037 119.05 102.942 119.336 102.828 119.609L102.71 119.923C100.862 124.145 96.8662 124.371 96.0852 124.371H117.588C118.382 124.371 122.365 124.145 124.213 119.923C125.033 118.004 125.619 114.776 123.654 110.275Z" fill="#108775"/>
<path fill-rule="evenodd" clip-rule="evenodd" d="M102.71 119.923L102.828 119.608C102.942 119.335 103.037 119.049 103.114 118.754C103.478 117.415 103.576 115.972 103.4 114.567C103.198 113.051 102.792 111.597 102.203 110.275L74.5173 44.9927L70.2871 35.0835L66.0828 44.9927L38.4103 110.275C37.8731 111.613 37.512 113.064 37.343 114.567C37.1203 116.224 37.2604 117.933 37.7465 119.486C37.8185 119.72 37.9011 119.947 37.9938 120.167C38.8269 122.086 40.5971 124.371 44.5019 124.371H96.0462C96.8662 124.371 100.862 124.144 102.71 119.923ZM70.2871 54.9019L95.5906 114.567H44.9966L70.2871 54.9019Z" fill="#2F495E"/>
</svg>
