<svg width="100" height="100" viewBox="0 0 100 100" fill="none" xmlns="http://www.w3.org/2000/svg">
<path d="M50 0C36.6667 0 28.3333 11.0822 25 33.2467C30 22.1645 35.8333 18.0087 42.5 20.7792C46.3037 22.36 49.0224 26.9471 52.0317 32.0249C56.9339 40.2966 62.6076 49.8701 75 49.8701C88.3333 49.8701 96.6667 38.7879 100 16.6234C95 27.7056 89.1667 31.8615 82.5 29.0909C78.6963 27.5101 75.9776 22.923 72.9683 17.8452C68.0661 9.57352 62.3924 0 50 0ZM25 49.8701C11.6667 49.8701 3.33333 60.9524 0 83.1169C5 72.0346 10.8333 67.8788 17.5 70.6493C21.3037 72.2301 24.0224 76.8172 27.0317 81.8951C31.9339 90.1667 37.6076 99.7403 50 99.7403C63.3333 99.7403 71.6667 88.658 75 66.4935C70 77.5758 64.1667 81.7316 57.5 78.961C53.6963 77.3803 50.9776 72.7931 47.9683 67.7153C43.0661 59.4436 37.3924 49.8701 25 49.8701Z" fill="url(#paint0_linear)"/>
<defs>
<linearGradient id="paint0_linear" x1="-2.77778" y1="31.9169" x2="99.9427" y2="67.5452" gradientUnits="userSpaceOnUse">
<stop stop-color="#2298BD"/>
<stop offset="1" stop-color="#0ED7B5"/>
</linearGradient>
</defs>
</svg>
