<svg width="100" height="100" viewBox="0 0 100 100" fill="none" xmlns="http://www.w3.org/2000/svg">
<path d="M0 50V100H50H100V50V0H50H0V50Z" fill="#007ACC"/>
<path d="M22.1142 50.3318L22.0825 54.427L28.5904 54.427H35.0983V72.9191V91.4111H39.7015H44.3047V72.9191L44.3047 54.427H50.8126H57.3206V50.4111C57.3206 48.1889 57.2729 46.3318 57.2094 46.2842C57.1618 46.2207 49.2412 46.1889 39.638 46.2048L22.1618 46.2524L22.1142 50.3318Z" fill="white"/>
<path d="M80.69 46.1357C83.2297 46.7707 85.1662 47.8976 86.9439 49.7389C87.8646 50.723 89.2296 52.5167 89.3408 52.9453C89.3725 53.0722 85.0233 55.9929 82.3884 57.6278C82.2931 57.6913 81.9122 57.2786 81.4836 56.6437C80.1979 54.7707 78.8487 53.9611 76.7852 53.8183C73.7535 53.6119 71.8011 55.1992 71.817 57.85C71.817 58.6278 71.9281 59.0881 72.2455 59.723C72.9122 61.104 74.1503 61.9294 78.0392 63.6119C85.1979 66.6913 88.2614 68.723 90.1662 71.6119C92.2931 74.8342 92.7693 79.977 91.3249 83.8024C89.7376 87.9611 85.8011 90.7865 80.2614 91.723C78.5471 92.0246 74.4836 91.977 72.6424 91.6437C68.6265 90.9294 64.817 88.9453 62.4678 86.3421C61.5471 85.3262 59.7535 82.6754 59.8646 82.4849C59.9122 82.4215 60.3249 82.1675 60.7852 81.8976C61.2297 81.6437 62.9122 80.6754 64.4995 79.7548L67.3725 78.0881L67.9757 78.977C68.817 80.2627 70.6582 82.0246 71.7693 82.6119C74.9598 84.2945 79.3408 84.0564 81.4995 82.1199C82.4201 81.2786 82.8011 80.4056 82.8011 79.1199C82.8011 77.9611 82.6582 77.4532 82.055 76.5802C81.2773 75.4691 79.69 74.5326 75.182 72.5802C70.0233 70.358 67.8011 68.977 65.7693 66.7865C64.5947 65.5167 63.4836 63.4849 63.0233 61.7865C62.6424 60.3738 62.5471 56.8342 62.8487 55.4056C63.9122 50.4215 67.6741 46.9453 73.1027 45.9135C74.8646 45.5802 78.9598 45.7072 80.69 46.1357Z" fill="white"/>
</svg>
