<svg width="50" height="50" viewBox="0 0 50 50" fill="none" xmlns="http://www.w3.org/2000/svg">
<path fill-rule="evenodd" clip-rule="evenodd" d="M25.0542 4.1665C13.5771 4.1665 4.27502 13.4686 4.27502 24.9457C4.27502 34.1248 10.2271 41.9144 18.4854 44.6644C19.525 44.8519 19.9 44.2123 19.9 43.6623C19.9 43.1686 19.8834 41.8603 19.8771 40.129C14.0959 41.3832 12.875 37.3415 12.875 37.3415C11.9334 34.9415 10.5688 34.3019 10.5688 34.3019C8.68336 33.0123 10.7125 33.0415 10.7125 33.0415C12.8 33.1873 13.8938 35.1832 13.8938 35.1832C15.7479 38.3582 18.7604 37.4415 19.9396 36.9103C20.1292 35.5665 20.6709 34.6498 21.2625 34.1311C16.65 33.6082 11.8 31.8248 11.8 23.8603C11.8 21.5957 12.6104 19.7373 13.9334 18.2873C13.7229 17.7603 13.0042 15.6457 14.1396 12.7873C14.1396 12.7873 15.8834 12.2269 19.8521 14.9144C21.5146 14.454 23.2875 14.2228 25.0521 14.2144C26.8209 14.2228 28.5959 14.454 30.2521 14.9144C34.2229 12.2248 35.9646 12.7873 35.9646 12.7873C37.1 15.6457 36.3875 17.7603 36.1709 18.2873C37.5042 19.7373 38.3042 21.5936 38.3042 23.8603C38.3042 31.8457 33.45 33.5998 28.8209 34.1144C29.5604 34.7561 30.2271 36.0228 30.2271 37.9603C30.2271 40.7394 30.2021 42.9811 30.2021 43.6623C30.2021 44.2186 30.5729 44.8644 31.6334 44.6603C39.8875 41.9061 45.8334 34.1228 45.8334 24.9457C45.8334 13.4686 36.5313 4.1665 25.0542 4.1665Z" fill="black"/>
</svg>
