<svg width="50" height="50" viewBox="0 0 50 50" fill="none" xmlns="http://www.w3.org/2000/svg">
<path d="M10.3813 14.9936C12.8988 14.9936 14.9396 12.9528 14.9396 10.4353C14.9396 7.91779 12.8988 5.87695 10.3813 5.87695C7.86377 5.87695 5.82294 7.91779 5.82294 10.4353C5.82294 12.9528 7.86377 14.9936 10.3813 14.9936Z" fill="#6F6595"/>
<path d="M19.2438 18.4482V43.7378H27.0959V31.2316C27.0959 27.9316 27.7167 24.7357 31.8084 24.7357C35.8438 24.7357 35.8938 28.5087 35.8938 31.4399V43.7399H43.75V29.8712C43.75 23.0587 42.2834 17.8232 34.3209 17.8232C30.4979 17.8232 27.9354 19.9212 26.8875 21.9066H26.7813V18.4482H19.2438ZM6.44794 18.4482H14.3125V43.7378H6.44794V18.4482Z" fill="#6F6595"/>
</svg>
