<svg width="529" height="461" viewBox="0 0 529 461" fill="none" xmlns="http://www.w3.org/2000/svg">
<path d="M288.749 128.384C315.65 128.384 337.458 106.362 337.458 79.1977C337.458 52.0331 315.65 30.0117 288.749 30.0117C261.847 30.0117 240.039 52.0331 240.039 79.1977C240.039 106.362 261.847 128.384 288.749 128.384Z" fill="#A0616A"/>
<path d="M252.393 103.791C252.393 103.791 261.57 173.649 247.452 181.49C233.333 189.331 331.458 190.044 331.458 190.044C331.458 190.044 309.574 129.453 319.457 110.919L252.393 103.791Z" fill="#A0616A"/>
<path d="M403.109 190.398L394.948 227.921L377.693 307.309L377.176 311.657L371.222 361.989L367.26 395.426L364.604 417.887C348.455 426.268 336.751 432.054 336.751 432.054C336.751 432.054 335.744 426.957 334.121 420.435C322.788 423.867 301.817 429.559 284.045 430.696C290.516 437.98 293.49 444.822 289.457 449.872C277.282 465.096 227.02 433.204 209.44 421.312C209.031 424.159 208.876 427.038 208.977 429.913L195.523 419.465L196.855 395.426L199.1 354.752L201.922 303.744C201.032 301.56 200.287 299.319 199.69 297.036C195.57 282.24 190.569 252.696 186.734 227.921C183.647 207.982 181.329 191.133 180.838 187.548C180.772 187.08 180.739 186.839 180.739 186.839L255.211 153.61C260.504 166.004 285.217 169.73 285.217 169.73C305.692 168.305 321.741 157.402 321.741 157.402L403.109 190.398Z" fill="#D0CDE1"/>
<path d="M342.401 417.8C342.401 417.8 339.248 418.89 334.121 420.436C322.788 423.867 301.817 429.559 284.045 430.696C268.744 431.686 255.814 429.305 253.449 419.225C252.436 414.891 253.873 411.326 257.006 408.396C266.359 399.64 290.788 396.503 310.163 395.427C315.634 395.126 320.695 394.985 324.907 394.932C332.061 394.838 336.751 394.985 336.751 394.985L336.863 395.427L342.401 417.8Z" fill="#A0616A"/>
<path d="M248.227 32.6721L239.12 28.9903C239.12 28.9903 258.162 7.82007 284.657 9.66104L277.205 1.37695C277.205 1.37695 295.42 -5.98654 311.979 13.3427C320.684 23.5037 330.755 35.4474 337.034 48.9018H346.787L342.716 57.9528L356.964 67.0038L342.34 65.3781C343.212 70.3345 343.345 75.3946 342.737 80.3909C342.11 85.3887 339.584 89.945 335.693 93.098C335.693 93.098 324.398 69.4898 324.398 65.808V75.0125C324.398 75.0125 315.291 66.7285 315.291 61.2059L310.323 67.649L307.839 57.524L277.205 67.649L282.173 59.365L263.13 62.1263L270.582 52.0014C270.582 52.0014 249.055 63.9672 248.227 74.0921C247.399 84.2169 241.098 93.8109 241.098 93.8109C241.098 93.8109 224.216 46.4787 248.227 32.6721Z" fill="#2F2E41"/>
<path d="M456.053 362.906C451.092 368.337 438.798 376.517 423.895 385.373C418.35 388.664 412.448 392.055 406.427 395.426C392.06 403.473 377.017 411.445 364.604 417.887C348.455 426.268 336.751 432.053 336.751 432.053C336.751 432.053 335.744 426.957 334.121 420.435C331.949 411.706 328.676 400.423 325.265 395.426C325.146 395.252 325.027 395.092 324.907 394.931C323.914 393.613 322.914 392.844 321.927 392.844L371.222 361.989L392.524 348.652L377.176 311.657L357.927 265.251L369.546 227.921L381.224 190.397H403.109C403.109 190.397 410.355 206.37 419.622 228.643C421.006 231.974 422.437 235.446 423.895 239.031C442.958 285.852 466.724 351.234 456.053 362.906Z" fill="#D0CDE1"/>
<path d="M289.456 449.872C277.282 465.096 227.02 433.204 209.44 421.311C205.612 418.723 203.333 417.084 203.333 417.084L219.416 395.426L224.51 388.57C224.51 388.57 229.067 391.012 235.803 394.985C236.048 395.132 236.293 395.279 236.545 395.426C242.354 398.871 249.647 403.372 257.006 408.396C267.161 415.332 277.428 423.244 284.045 430.696C290.516 437.98 293.49 444.822 289.456 449.872Z" fill="#A0616A"/>
<path d="M235.803 394.985C234.006 394.978 232.211 395.126 230.438 395.426C215.21 398.068 210.719 411.988 209.44 421.312C209.031 424.159 208.876 427.038 208.977 429.913L195.523 419.465L190.622 415.66C178.825 411.506 168.313 404.128 159.198 395.426C151.291 387.744 144.198 379.25 138.035 370.083C131.896 361.048 126.423 351.569 121.661 341.723C120.332 338.975 119.618 335.966 119.568 332.909C119.519 329.852 120.136 326.821 121.376 324.031L138.035 286.541L162.384 231.747C162.563 230.443 162.76 229.168 162.974 227.921C167.803 199.963 180.739 187.548 180.739 187.548H190.622L197.232 227.921L205.446 278.08L199.69 297.036L186.389 340.813L199.1 354.752L235.803 394.985Z" fill="#D0CDE1"/>
<path d="M246.988 278.12L255.437 288.073C258.576 287.469 261.854 286.759 265.23 285.961L262.803 278.12L268.737 285.11C304.504 276.227 348.837 258.956 348.837 258.956C348.837 258.956 300.975 262.5 265.238 254.616C249.427 251.128 233.159 259.043 226.67 274.015C222.899 282.718 223.491 290.257 236.867 290.257C241.386 290.179 245.893 289.751 250.348 288.977L246.988 278.12Z" fill="#00AAE4"/>
<path d="M439.593 441.712V445.772C439.595 446.887 439.391 447.991 438.99 449.03C438.812 449.492 438.598 449.94 438.348 450.367C437.558 451.706 436.438 452.813 435.097 453.583C433.756 454.352 432.24 454.756 430.697 454.755H134.908C133.366 454.756 131.85 454.352 130.509 453.583C129.168 452.813 128.047 451.706 127.258 450.367C127.008 449.94 126.793 449.492 126.615 449.03C126.215 447.991 126.01 446.887 126.013 445.772V441.712C126.012 440.533 126.242 439.364 126.689 438.274C127.136 437.184 127.791 436.194 128.617 435.36C129.444 434.526 130.424 433.864 131.504 433.413C132.583 432.961 133.74 432.729 134.908 432.729H151.958V430.836C151.958 430.787 151.968 430.739 151.986 430.693C152.005 430.648 152.032 430.606 152.067 430.571C152.101 430.537 152.142 430.509 152.187 430.49C152.232 430.471 152.28 430.462 152.329 430.462H161.225C161.274 430.462 161.322 430.471 161.367 430.49C161.412 430.509 161.453 430.537 161.488 430.571C161.522 430.606 161.549 430.648 161.568 430.693C161.587 430.739 161.596 430.787 161.596 430.836V432.729H167.153V430.836C167.153 430.787 167.163 430.739 167.181 430.693C167.2 430.648 167.227 430.606 167.262 430.571C167.296 430.537 167.337 430.509 167.382 430.49C167.427 430.471 167.476 430.462 167.524 430.462H176.42C176.469 430.462 176.517 430.471 176.562 430.49C176.607 430.509 176.648 430.537 176.683 430.571C176.717 430.606 176.744 430.648 176.763 430.693C176.782 430.739 176.791 430.787 176.791 430.836V432.729H182.355V430.836C182.355 430.787 182.365 430.739 182.383 430.693C182.402 430.648 182.429 430.606 182.464 430.571C182.498 430.537 182.539 430.509 182.584 430.49C182.629 430.471 182.677 430.462 182.726 430.462H191.622C191.671 430.462 191.719 430.471 191.764 430.49C191.809 430.509 191.85 430.537 191.884 430.571C191.919 430.606 191.946 430.648 191.965 430.693C191.983 430.739 191.993 430.787 191.993 430.836V432.729H197.55V430.836C197.55 430.787 197.56 430.739 197.578 430.693C197.597 430.648 197.624 430.606 197.659 430.571C197.693 430.537 197.734 430.509 197.779 430.49C197.824 430.471 197.873 430.462 197.921 430.462H206.817C206.866 430.462 206.914 430.471 206.959 430.49C207.004 430.509 207.045 430.537 207.08 430.571C207.114 430.606 207.141 430.648 207.16 430.693C207.179 430.739 207.188 430.787 207.188 430.836V432.729H212.745V430.836C212.745 430.787 212.755 430.739 212.774 430.693C212.792 430.648 212.82 430.606 212.854 430.571C212.888 430.537 212.929 430.509 212.974 430.49C213.019 430.471 213.068 430.462 213.116 430.462H222.012C222.061 430.462 222.109 430.471 222.154 430.49C222.199 430.509 222.24 430.537 222.275 430.571C222.309 430.606 222.337 430.648 222.355 430.693C222.374 430.739 222.383 430.787 222.383 430.836V432.729H227.947V430.836C227.947 430.787 227.957 430.739 227.975 430.693C227.994 430.648 228.021 430.606 228.056 430.571C228.09 430.537 228.131 430.509 228.176 430.49C228.221 430.471 228.269 430.462 228.318 430.462H237.214C237.263 430.462 237.311 430.471 237.356 430.49C237.401 430.509 237.442 430.537 237.477 430.571C237.511 430.606 237.538 430.648 237.557 430.693C237.576 430.739 237.585 430.787 237.585 430.836V432.729H243.142V430.836C243.142 430.787 243.152 430.739 243.17 430.693C243.189 430.648 243.216 430.606 243.251 430.571C243.285 430.537 243.326 430.509 243.371 430.49C243.416 430.471 243.465 430.462 243.513 430.462H313.196C313.245 430.462 313.293 430.471 313.339 430.49C313.384 430.509 313.424 430.537 313.459 430.571C313.493 430.606 313.521 430.648 313.539 430.693C313.558 430.739 313.567 430.787 313.567 430.836V432.729H319.131V430.836C319.131 430.787 319.141 430.739 319.159 430.693C319.178 430.648 319.205 430.606 319.24 430.571C319.274 430.537 319.315 430.509 319.36 430.49C319.405 430.471 319.454 430.462 319.502 430.462H328.398C328.496 430.463 328.59 430.503 328.66 430.573C328.729 430.643 328.768 430.737 328.769 430.836V432.729H334.327V430.836C334.327 430.787 334.336 430.739 334.355 430.693C334.373 430.648 334.401 430.606 334.435 430.571C334.47 430.537 334.51 430.509 334.555 430.49C334.601 430.471 334.649 430.462 334.698 430.462H343.593C343.642 430.462 343.69 430.471 343.735 430.49C343.781 430.509 343.821 430.537 343.856 430.571C343.89 430.606 343.918 430.648 343.936 430.693C343.955 430.739 343.964 430.787 343.964 430.836V432.729H349.522V430.836C349.522 430.787 349.531 430.739 349.55 430.693C349.568 430.648 349.596 430.606 349.63 430.571C349.665 430.537 349.706 430.509 349.751 430.49C349.796 430.471 349.844 430.462 349.893 430.462H358.789C358.837 430.462 358.886 430.471 358.931 430.49C358.976 430.509 359.017 430.537 359.051 430.571C359.086 430.606 359.113 430.648 359.131 430.693C359.15 430.739 359.16 430.787 359.16 430.836V432.729H364.724V430.836C364.723 430.787 364.733 430.739 364.752 430.693C364.77 430.648 364.798 430.606 364.832 430.571C364.867 430.537 364.907 430.509 364.952 430.49C364.998 430.471 365.046 430.462 365.095 430.462H373.99C374.088 430.463 374.181 430.503 374.249 430.573C374.317 430.644 374.355 430.738 374.355 430.836V432.729H379.919V430.836C379.919 430.787 379.928 430.739 379.947 430.693C379.965 430.648 379.993 430.606 380.027 430.571C380.062 430.537 380.103 430.509 380.148 430.49C380.193 430.471 380.241 430.462 380.29 430.462H389.186C389.234 430.462 389.283 430.471 389.328 430.49C389.373 430.509 389.414 430.537 389.448 430.571C389.482 430.606 389.51 430.648 389.528 430.693C389.547 430.739 389.557 430.787 389.556 430.836V432.729H395.114V430.836C395.114 430.787 395.123 430.739 395.142 430.693C395.161 430.648 395.188 430.606 395.222 430.571C395.257 430.537 395.298 430.509 395.343 430.49C395.388 430.471 395.436 430.462 395.485 430.462H404.381C404.429 430.462 404.478 430.471 404.523 430.49C404.568 430.509 404.609 430.537 404.643 430.571C404.678 430.606 404.705 430.648 404.724 430.693C404.742 430.739 404.752 430.787 404.752 430.836V432.729H430.697C431.866 432.729 433.023 432.961 434.102 433.413C435.181 433.864 436.162 434.526 436.988 435.36C437.814 436.194 438.47 437.184 438.917 438.274C439.364 439.364 439.593 440.533 439.593 441.712Z" fill="#3F3D56"/>
<path d="M525.604 449.029H40.0746V450.367H525.604V449.029Z" fill="#3F3D56"/>
<path d="M415.776 270.729H305.527V268.435H255.535V270.729H144.831C142.854 270.729 140.957 271.523 139.558 272.935C138.16 274.347 137.374 276.262 137.374 278.26V430.703C137.374 432.7 138.16 434.615 139.558 436.028C140.957 437.44 142.854 438.233 144.831 438.233H415.776C417.754 438.233 419.651 437.44 421.05 436.028C422.448 434.615 423.234 432.7 423.234 430.703V278.26C423.234 277.271 423.041 276.292 422.666 275.378C422.292 274.464 421.742 273.634 421.05 272.935C420.357 272.236 419.535 271.681 418.63 271.302C417.726 270.924 416.756 270.729 415.776 270.729Z" fill="#3F3D56"/>
<path d="M280.521 340.672C289.667 340.672 297.081 333.186 297.081 323.951C297.081 314.716 289.667 307.229 280.521 307.229C271.375 307.229 263.961 314.716 263.961 323.951C263.961 333.186 271.375 340.672 280.521 340.672Z" stroke="#D0CDE1" stroke-width="2" stroke-miterlimit="10"/>
<path d="M275.222 346.693C284.367 346.693 291.781 339.206 291.781 329.971C291.781 320.736 284.367 313.249 275.222 313.249C266.076 313.249 258.662 320.736 258.662 329.971C258.662 339.206 266.076 346.693 275.222 346.693Z" fill="#D0CDE1"/>
<path d="M71.8332 442.271H53.2864V461H71.8332V442.271Z" fill="#D0CDE1"/>
<path d="M60.5753 427.557V450.298H83.0964V427.557H60.5753ZM82.1161 449.308H61.549V428.547H82.1161V449.308Z" fill="#3F3D56"/>
<path d="M501.06 442.271H482.513V461H501.06V442.271Z" fill="#D0CDE1"/>
<path d="M489.802 427.557V450.298H512.323V427.557H489.802ZM511.343 449.308H490.776V428.547H511.343V449.308Z" fill="#3F3D56"/>
<path d="M62.6486 153.916C91.6734 153.916 115.203 130.156 115.203 100.847C115.203 71.5383 91.6734 47.7788 62.6486 47.7788C33.6238 47.7788 10.0945 71.5383 10.0945 100.847C10.0945 130.156 33.6238 153.916 62.6486 153.916Z" fill="#00AAE4"/>
<path d="M80.9629 37.7845C76.2044 37.1734 71.3884 37.1734 66.63 37.7845C56.0288 39.19 46.0495 43.637 37.8761 50.5977C29.7027 57.5585 23.6783 66.7408 20.5178 77.0551C19.0804 81.7556 18.2664 86.6278 18.0971 91.5444C18.0733 92.2278 18.0573 92.9194 18.0573 93.6108C18.0721 108.534 23.9493 122.841 34.3992 133.394C44.8492 143.946 59.0181 149.881 73.7965 149.896C74.9829 149.896 76.1693 149.855 77.3399 149.783C80.0875 149.609 82.8184 149.227 85.5097 148.641C98.3612 145.85 109.823 138.564 117.87 128.067C125.917 117.571 130.032 104.541 129.488 91.2785C128.944 78.0159 123.776 65.3741 114.897 55.5858C106.018 45.7975 93.9989 39.4925 80.9629 37.7845H80.9629ZM91.2427 145.377H91.2348C86.7458 146.923 82.0733 147.862 77.3398 148.167C76.1693 148.247 74.9828 148.287 73.7964 148.287C59.4412 148.27 45.679 142.503 35.5284 132.253C25.3777 122.003 19.6674 108.107 19.6498 93.6108C19.6498 92.9194 19.6657 92.2278 19.6896 91.5444C20.237 77.4176 26.1748 64.0522 36.2599 54.246C46.3451 44.4398 59.7958 38.9531 73.7964 38.9343C86.6244 38.935 99.0356 43.5345 108.819 51.9132C118.602 60.2919 125.122 71.9057 127.216 84.6854C129.311 97.4651 126.844 110.581 120.256 121.696C113.668 132.81 103.386 141.202 91.2427 145.377H91.2427Z" fill="#3F3D56"/>
<path d="M74.5927 42.1504H73.0001V53.4073H74.5927V42.1504Z" fill="#3F3D56"/>
<path d="M38.3243 56.6544L37.1982 57.7915L45.0809 65.7514L46.207 64.6142L38.3243 56.6544Z" fill="#3F3D56"/>
<path d="M22.8349 92.8069V94.415H33.9828V92.8069H22.8349Z" fill="#3F3D56"/>
<path d="M37.1981 129.43L38.3242 130.567L46.2069 122.608L45.0808 121.47L37.1981 129.43Z" fill="#3F3D56"/>
<path d="M101.386 64.6143L102.512 65.7515L110.395 57.7916L109.269 56.6545L101.386 64.6143Z" fill="#3F3D56"/>
<path d="M113.61 92.8069V94.415H124.758V92.8069H113.61Z" fill="#3F3D56"/>
<path d="M102.512 121.47L101.386 122.607L109.269 130.567L110.395 129.43L102.512 121.47Z" fill="#3F3D56"/>
<path d="M74.5927 133.814H73.0001V145.071H74.5927V133.814Z" fill="#3F3D56"/>
<path d="M76.1852 90.3944C75.4961 89.8725 74.6579 89.5903 73.7964 89.5903C72.935 89.5903 72.0967 89.8725 71.4076 90.3944C70.9358 90.7563 70.5473 91.2171 70.2689 91.7452C69.9162 92.4253 69.7636 93.193 69.8292 93.9578C69.8948 94.7226 70.1759 95.4525 70.6392 96.0611C71.1025 96.6698 71.7286 97.1318 72.4437 97.3925C73.1587 97.6532 73.9327 97.7018 74.6742 97.5325C75.4157 97.3632 76.0937 96.9831 76.6281 96.4371C77.1625 95.8911 77.5309 95.202 77.6898 94.4513C77.8487 93.7006 77.7915 92.9196 77.5249 92.2007C77.2583 91.4818 76.7934 90.855 76.1852 90.3944H76.1852ZM73.7964 96.0229C73.1634 96.021 72.5569 95.7662 72.1093 95.3143C71.6617 94.8623 71.4094 94.2498 71.4076 93.6107C71.4107 93.1228 71.5576 92.6469 71.8296 92.2437C72.063 91.9025 72.3795 91.6279 72.7487 91.4463C73.1179 91.2648 73.5272 91.1825 73.9371 91.2075C74.347 91.2325 74.7436 91.3638 75.0885 91.5888C75.4334 91.8138 75.715 92.1249 75.906 92.4919C76.097 92.859 76.191 93.2696 76.1789 93.6841C76.1668 94.0985 76.049 94.5028 75.8369 94.8579C75.6248 95.2129 75.3255 95.5067 74.9681 95.7108C74.6106 95.9149 74.207 96.0223 73.7964 96.0229V96.0229Z" fill="#3F3D56"/>
<path d="M80.9629 23.6572H66.6299V38.1304H80.9629V23.6572Z" fill="#3F3D56"/>
<path d="M73.7964 26.069C84.3509 26.069 92.907 23.0091 92.907 19.2345C92.907 15.4598 84.3509 12.3999 73.7964 12.3999C63.2419 12.3999 54.6859 15.4598 54.6859 19.2345C54.6859 23.0091 63.2419 26.069 73.7964 26.069Z" fill="#3F3D56"/>
<path d="M76.1852 63.0562H71.4076V90.3944H76.1852V63.0562Z" fill="#3F3D56"/>
<path d="M149.699 147.446H0V149.054H149.699V147.446Z" fill="#3F3D56"/>
<path d="M99.7512 401.157C100.369 422.527 88.0037 430.359 72.4853 430.817C72.1248 430.827 71.766 430.834 71.4087 430.836C70.6891 430.842 69.9764 430.83 69.2707 430.8C55.2358 430.212 44.1264 422.689 43.5516 402.814C42.9568 382.247 68.2381 355.523 70.1349 353.547L70.1382 353.545C70.2103 353.469 70.2472 353.432 70.2472 353.432C70.2472 353.432 99.1332 379.788 99.7512 401.157Z" fill="#D0CDE1"/>
<path d="M71.368 427.578L81.2259 412.775L71.3882 429.171L71.4087 430.836C70.689 430.842 69.9764 430.83 69.2707 430.8L69.7596 409.388L69.7462 409.223L69.7643 409.191L69.8111 407.168L59.0156 391.341L69.7983 405.654L69.8366 406.081L70.2059 389.904L60.8815 373.495L70.2324 387.062L70.1348 353.547L70.135 353.435L70.1382 353.545L70.7572 379.959L79.2553 369.23L70.785 382.235L70.9705 396.705L78.7905 382.583L70.9992 398.833L71.1025 406.879L82.4748 387.206L71.137 409.686L71.368 427.578Z" fill="#3F3D56"/>
<path d="M528.978 401.157C529.596 422.527 517.23 430.359 501.712 430.817C501.351 430.827 500.992 430.834 500.635 430.836C499.916 430.842 499.203 430.83 498.497 430.8C484.462 430.212 473.353 422.689 472.778 402.814C472.183 382.247 497.465 355.523 499.361 353.547L499.365 353.545C499.437 353.469 499.474 353.432 499.474 353.432C499.474 353.432 528.36 379.788 528.978 401.157Z" fill="#D0CDE1"/>
<path d="M500.595 427.578L510.452 412.775L500.615 429.171L500.635 430.836C499.916 430.842 499.203 430.83 498.497 430.8L498.986 409.388L498.973 409.223L498.991 409.191L499.038 407.168L488.242 391.341L499.025 405.654L499.063 406.081L499.432 389.904L490.108 373.495L499.459 387.062L499.361 353.547L499.362 353.435L499.365 353.545L499.984 379.959L508.482 369.23L500.012 382.235L500.197 396.705L508.017 382.583L500.226 398.833L500.329 406.879L511.701 387.206L500.364 409.686L500.595 427.578Z" fill="#3F3D56"/>
</svg>
