<svg width="50" height="50" viewBox="0 0 50 50" fill="none" xmlns="http://www.w3.org/2000/svg">
<path d="M41.6666 8.3335H12.5C10.2021 8.3335 8.33331 10.2022 8.33331 12.5002V22.9168H12.5V16.6668L25.8333 26.6668C26.2041 26.9439 26.6437 27.0835 27.0833 27.0835C27.5229 27.0835 27.9625 26.9439 28.3333 26.6668L41.6666 16.6668V35.4168H25V39.5835H41.6666C43.9646 39.5835 45.8333 37.7147 45.8333 35.4168V12.5002C45.8333 10.2022 43.9646 8.3335 41.6666 8.3335ZM27.0833 22.396L13.8875 12.5002H40.2791L27.0833 22.396Z" fill="#000203"/>
<path d="M4.16669 25H18.75V29.1667H4.16669V25ZM8.33335 31.25H20.8334V35.4167H8.33335V31.25ZM14.5834 37.5H22.9167V41.6667H14.5834V37.5Z" fill="#000203"/>
</svg>
